M48
; DRILL file KiCad 10.0.5 date 2026-07-23T19:13:46
; FORMAT={-:-/ absolute / metric / decimal}
; #@! TF.CreationDate,2026-07-23T19:13:46+01:00
; #@! TF.GenerationSoftware,Kicad,Pcbnew,10.0.5
; #@! TF.FileFunction,Plated,1,2,PTH
FMAT,2
METRIC
; #@! TA.AperFunction,Plated,PTH,ViaDrill
T1C0.300
; #@! TA.AperFunction,Plated,PTH,ComponentDrill
T2C0.700
; #@! TA.AperFunction,Plated,PTH,ComponentDrill
T3C1.000
; #@! TA.AperFunction,Plated,PTH,ComponentDrill
T4C1.016
; #@! TA.AperFunction,Plated,PTH,ComponentDrill
T5C1.500
%
G90
G05
T1
X127.6Y-94.15
X127.9Y-107.85
X127.9Y-110.15
X128.7Y-96.75
X129.3Y-93.55
X129.3Y-96.15
X138.3Y-102.15
X138.5Y-103.85
X142.6Y-101.55
X148.2Y-98.35
X148.6Y-85.35
X150.3Y-90.75
T2
X135.15Y-83.575
X135.15Y-85.355
X135.15Y-87.135
X135.15Y-88.915
X135.15Y-90.695
X135.15Y-92.475
X135.15Y-94.255
X135.15Y-96.035
X145.85Y-84.465
X145.85Y-86.245
X145.85Y-88.025
X145.85Y-89.805
X145.85Y-91.585
X145.85Y-93.365
X145.85Y-95.145
X145.85Y-96.925
T3
X133.55Y-60.15
X133.55Y-65.15
X148.05Y-60.15
X148.05Y-62.65
X148.05Y-65.15
T4
X132.88Y-109.01
X132.88Y-111.55
X132.88Y-114.09
X132.88Y-116.63
X132.88Y-119.17
X132.88Y-121.71
X132.88Y-124.25
X132.88Y-126.79
X132.88Y-129.33
X132.88Y-131.87
X132.88Y-134.41
X132.88Y-136.95
X148.12Y-109.01
X148.12Y-111.55
X148.12Y-114.09
X148.12Y-116.63
X148.12Y-119.17
X148.12Y-121.71
X148.12Y-124.25
X148.12Y-126.79
X148.12Y-129.33
X148.12Y-131.87
X148.12Y-134.41
X148.12Y-136.95
T5
X123.5Y-53.17
X123.5Y-58.25
X123.5Y-63.33
X158.5Y-53.17
X158.5Y-58.25
X158.5Y-63.33
T5
G00X141.2Y-57.05
M15
G01X139.9Y-57.05
M16
G05
G00X141.2Y-68.25
M15
G01X139.9Y-68.25
M16
G05
M30
