%TF.GenerationSoftware,KiCad,Pcbnew,10.0.5*%
%TF.CreationDate,2026-07-23T19:13:24+01:00*%
%TF.ProjectId,DIY_Mouse,4449595f-4d6f-4757-9365-2e6b69636164,rev?*%
%TF.SameCoordinates,Original*%
%TF.FileFunction,Legend,Top*%
%TF.FilePolarity,Positive*%
%FSLAX46Y46*%
G04 Gerber Fmt 4.6, Leading zero omitted, Abs format (unit mm)*
G04 Created by KiCad (PCBNEW 10.0.5) date 2026-07-23 19:13:24*
%MOMM*%
%LPD*%
G01*
G04 APERTURE LIST*
%ADD10C,0.150000*%
%ADD11C,0.200000*%
%ADD12C,0.127000*%
%ADD13C,0.120000*%
G04 APERTURE END LIST*
D10*
X132859580Y-104916666D02*
X132907200Y-104964285D01*
X132907200Y-104964285D02*
X132954819Y-105107142D01*
X132954819Y-105107142D02*
X132954819Y-105202380D01*
X132954819Y-105202380D02*
X132907200Y-105345237D01*
X132907200Y-105345237D02*
X132811961Y-105440475D01*
X132811961Y-105440475D02*
X132716723Y-105488094D01*
X132716723Y-105488094D02*
X132526247Y-105535713D01*
X132526247Y-105535713D02*
X132383390Y-105535713D01*
X132383390Y-105535713D02*
X132192914Y-105488094D01*
X132192914Y-105488094D02*
X132097676Y-105440475D01*
X132097676Y-105440475D02*
X132002438Y-105345237D01*
X132002438Y-105345237D02*
X131954819Y-105202380D01*
X131954819Y-105202380D02*
X131954819Y-105107142D01*
X131954819Y-105107142D02*
X132002438Y-104964285D01*
X132002438Y-104964285D02*
X132050057Y-104916666D01*
X131954819Y-104583332D02*
X131954819Y-103916666D01*
X131954819Y-103916666D02*
X132954819Y-104345237D01*
X138859580Y-105416666D02*
X138907200Y-105464285D01*
X138907200Y-105464285D02*
X138954819Y-105607142D01*
X138954819Y-105607142D02*
X138954819Y-105702380D01*
X138954819Y-105702380D02*
X138907200Y-105845237D01*
X138907200Y-105845237D02*
X138811961Y-105940475D01*
X138811961Y-105940475D02*
X138716723Y-105988094D01*
X138716723Y-105988094D02*
X138526247Y-106035713D01*
X138526247Y-106035713D02*
X138383390Y-106035713D01*
X138383390Y-106035713D02*
X138192914Y-105988094D01*
X138192914Y-105988094D02*
X138097676Y-105940475D01*
X138097676Y-105940475D02*
X138002438Y-105845237D01*
X138002438Y-105845237D02*
X137954819Y-105702380D01*
X137954819Y-105702380D02*
X137954819Y-105607142D01*
X137954819Y-105607142D02*
X138002438Y-105464285D01*
X138002438Y-105464285D02*
X138050057Y-105416666D01*
X138383390Y-104845237D02*
X138335771Y-104940475D01*
X138335771Y-104940475D02*
X138288152Y-104988094D01*
X138288152Y-104988094D02*
X138192914Y-105035713D01*
X138192914Y-105035713D02*
X138145295Y-105035713D01*
X138145295Y-105035713D02*
X138050057Y-104988094D01*
X138050057Y-104988094D02*
X138002438Y-104940475D01*
X138002438Y-104940475D02*
X137954819Y-104845237D01*
X137954819Y-104845237D02*
X137954819Y-104654761D01*
X137954819Y-104654761D02*
X138002438Y-104559523D01*
X138002438Y-104559523D02*
X138050057Y-104511904D01*
X138050057Y-104511904D02*
X138145295Y-104464285D01*
X138145295Y-104464285D02*
X138192914Y-104464285D01*
X138192914Y-104464285D02*
X138288152Y-104511904D01*
X138288152Y-104511904D02*
X138335771Y-104559523D01*
X138335771Y-104559523D02*
X138383390Y-104654761D01*
X138383390Y-104654761D02*
X138383390Y-104845237D01*
X138383390Y-104845237D02*
X138431009Y-104940475D01*
X138431009Y-104940475D02*
X138478628Y-104988094D01*
X138478628Y-104988094D02*
X138573866Y-105035713D01*
X138573866Y-105035713D02*
X138764342Y-105035713D01*
X138764342Y-105035713D02*
X138859580Y-104988094D01*
X138859580Y-104988094D02*
X138907200Y-104940475D01*
X138907200Y-104940475D02*
X138954819Y-104845237D01*
X138954819Y-104845237D02*
X138954819Y-104654761D01*
X138954819Y-104654761D02*
X138907200Y-104559523D01*
X138907200Y-104559523D02*
X138859580Y-104511904D01*
X138859580Y-104511904D02*
X138764342Y-104464285D01*
X138764342Y-104464285D02*
X138573866Y-104464285D01*
X138573866Y-104464285D02*
X138478628Y-104511904D01*
X138478628Y-104511904D02*
X138431009Y-104559523D01*
X138431009Y-104559523D02*
X138383390Y-104654761D01*
X119207200Y-62016904D02*
X119254819Y-61874047D01*
X119254819Y-61874047D02*
X119254819Y-61635952D01*
X119254819Y-61635952D02*
X119207200Y-61540714D01*
X119207200Y-61540714D02*
X119159580Y-61493095D01*
X119159580Y-61493095D02*
X119064342Y-61445476D01*
X119064342Y-61445476D02*
X118969104Y-61445476D01*
X118969104Y-61445476D02*
X118873866Y-61493095D01*
X118873866Y-61493095D02*
X118826247Y-61540714D01*
X118826247Y-61540714D02*
X118778628Y-61635952D01*
X118778628Y-61635952D02*
X118731009Y-61826428D01*
X118731009Y-61826428D02*
X118683390Y-61921666D01*
X118683390Y-61921666D02*
X118635771Y-61969285D01*
X118635771Y-61969285D02*
X118540533Y-62016904D01*
X118540533Y-62016904D02*
X118445295Y-62016904D01*
X118445295Y-62016904D02*
X118350057Y-61969285D01*
X118350057Y-61969285D02*
X118302438Y-61921666D01*
X118302438Y-61921666D02*
X118254819Y-61826428D01*
X118254819Y-61826428D02*
X118254819Y-61588333D01*
X118254819Y-61588333D02*
X118302438Y-61445476D01*
X119254819Y-60493095D02*
X119254819Y-61064523D01*
X119254819Y-60778809D02*
X118254819Y-60778809D01*
X118254819Y-60778809D02*
X118397676Y-60874047D01*
X118397676Y-60874047D02*
X118492914Y-60969285D01*
X118492914Y-60969285D02*
X118540533Y-61064523D01*
X154207200Y-62016904D02*
X154254819Y-61874047D01*
X154254819Y-61874047D02*
X154254819Y-61635952D01*
X154254819Y-61635952D02*
X154207200Y-61540714D01*
X154207200Y-61540714D02*
X154159580Y-61493095D01*
X154159580Y-61493095D02*
X154064342Y-61445476D01*
X154064342Y-61445476D02*
X153969104Y-61445476D01*
X153969104Y-61445476D02*
X153873866Y-61493095D01*
X153873866Y-61493095D02*
X153826247Y-61540714D01*
X153826247Y-61540714D02*
X153778628Y-61635952D01*
X153778628Y-61635952D02*
X153731009Y-61826428D01*
X153731009Y-61826428D02*
X153683390Y-61921666D01*
X153683390Y-61921666D02*
X153635771Y-61969285D01*
X153635771Y-61969285D02*
X153540533Y-62016904D01*
X153540533Y-62016904D02*
X153445295Y-62016904D01*
X153445295Y-62016904D02*
X153350057Y-61969285D01*
X153350057Y-61969285D02*
X153302438Y-61921666D01*
X153302438Y-61921666D02*
X153254819Y-61826428D01*
X153254819Y-61826428D02*
X153254819Y-61588333D01*
X153254819Y-61588333D02*
X153302438Y-61445476D01*
X153350057Y-61064523D02*
X153302438Y-61016904D01*
X153302438Y-61016904D02*
X153254819Y-60921666D01*
X153254819Y-60921666D02*
X153254819Y-60683571D01*
X153254819Y-60683571D02*
X153302438Y-60588333D01*
X153302438Y-60588333D02*
X153350057Y-60540714D01*
X153350057Y-60540714D02*
X153445295Y-60493095D01*
X153445295Y-60493095D02*
X153540533Y-60493095D01*
X153540533Y-60493095D02*
X153683390Y-60540714D01*
X153683390Y-60540714D02*
X154254819Y-61112142D01*
X154254819Y-61112142D02*
X154254819Y-60493095D01*
X125833333Y-94854819D02*
X125500000Y-94378628D01*
X125261905Y-94854819D02*
X125261905Y-93854819D01*
X125261905Y-93854819D02*
X125642857Y-93854819D01*
X125642857Y-93854819D02*
X125738095Y-93902438D01*
X125738095Y-93902438D02*
X125785714Y-93950057D01*
X125785714Y-93950057D02*
X125833333Y-94045295D01*
X125833333Y-94045295D02*
X125833333Y-94188152D01*
X125833333Y-94188152D02*
X125785714Y-94283390D01*
X125785714Y-94283390D02*
X125738095Y-94331009D01*
X125738095Y-94331009D02*
X125642857Y-94378628D01*
X125642857Y-94378628D02*
X125261905Y-94378628D01*
X126166667Y-93854819D02*
X126785714Y-93854819D01*
X126785714Y-93854819D02*
X126452381Y-94235771D01*
X126452381Y-94235771D02*
X126595238Y-94235771D01*
X126595238Y-94235771D02*
X126690476Y-94283390D01*
X126690476Y-94283390D02*
X126738095Y-94331009D01*
X126738095Y-94331009D02*
X126785714Y-94426247D01*
X126785714Y-94426247D02*
X126785714Y-94664342D01*
X126785714Y-94664342D02*
X126738095Y-94759580D01*
X126738095Y-94759580D02*
X126690476Y-94807200D01*
X126690476Y-94807200D02*
X126595238Y-94854819D01*
X126595238Y-94854819D02*
X126309524Y-94854819D01*
X126309524Y-94854819D02*
X126214286Y-94807200D01*
X126214286Y-94807200D02*
X126166667Y-94759580D01*
X138949580Y-100892857D02*
X138997200Y-100940476D01*
X138997200Y-100940476D02*
X139044819Y-101083333D01*
X139044819Y-101083333D02*
X139044819Y-101178571D01*
X139044819Y-101178571D02*
X138997200Y-101321428D01*
X138997200Y-101321428D02*
X138901961Y-101416666D01*
X138901961Y-101416666D02*
X138806723Y-101464285D01*
X138806723Y-101464285D02*
X138616247Y-101511904D01*
X138616247Y-101511904D02*
X138473390Y-101511904D01*
X138473390Y-101511904D02*
X138282914Y-101464285D01*
X138282914Y-101464285D02*
X138187676Y-101416666D01*
X138187676Y-101416666D02*
X138092438Y-101321428D01*
X138092438Y-101321428D02*
X138044819Y-101178571D01*
X138044819Y-101178571D02*
X138044819Y-101083333D01*
X138044819Y-101083333D02*
X138092438Y-100940476D01*
X138092438Y-100940476D02*
X138140057Y-100892857D01*
X139044819Y-99940476D02*
X139044819Y-100511904D01*
X139044819Y-100226190D02*
X138044819Y-100226190D01*
X138044819Y-100226190D02*
X138187676Y-100321428D01*
X138187676Y-100321428D02*
X138282914Y-100416666D01*
X138282914Y-100416666D02*
X138330533Y-100511904D01*
X138044819Y-99321428D02*
X138044819Y-99226190D01*
X138044819Y-99226190D02*
X138092438Y-99130952D01*
X138092438Y-99130952D02*
X138140057Y-99083333D01*
X138140057Y-99083333D02*
X138235295Y-99035714D01*
X138235295Y-99035714D02*
X138425771Y-98988095D01*
X138425771Y-98988095D02*
X138663866Y-98988095D01*
X138663866Y-98988095D02*
X138854342Y-99035714D01*
X138854342Y-99035714D02*
X138949580Y-99083333D01*
X138949580Y-99083333D02*
X138997200Y-99130952D01*
X138997200Y-99130952D02*
X139044819Y-99226190D01*
X139044819Y-99226190D02*
X139044819Y-99321428D01*
X139044819Y-99321428D02*
X138997200Y-99416666D01*
X138997200Y-99416666D02*
X138949580Y-99464285D01*
X138949580Y-99464285D02*
X138854342Y-99511904D01*
X138854342Y-99511904D02*
X138663866Y-99559523D01*
X138663866Y-99559523D02*
X138425771Y-99559523D01*
X138425771Y-99559523D02*
X138235295Y-99511904D01*
X138235295Y-99511904D02*
X138140057Y-99464285D01*
X138140057Y-99464285D02*
X138092438Y-99416666D01*
X138092438Y-99416666D02*
X138044819Y-99321428D01*
X150533333Y-98909580D02*
X150485714Y-98957200D01*
X150485714Y-98957200D02*
X150342857Y-99004819D01*
X150342857Y-99004819D02*
X150247619Y-99004819D01*
X150247619Y-99004819D02*
X150104762Y-98957200D01*
X150104762Y-98957200D02*
X150009524Y-98861961D01*
X150009524Y-98861961D02*
X149961905Y-98766723D01*
X149961905Y-98766723D02*
X149914286Y-98576247D01*
X149914286Y-98576247D02*
X149914286Y-98433390D01*
X149914286Y-98433390D02*
X149961905Y-98242914D01*
X149961905Y-98242914D02*
X150009524Y-98147676D01*
X150009524Y-98147676D02*
X150104762Y-98052438D01*
X150104762Y-98052438D02*
X150247619Y-98004819D01*
X150247619Y-98004819D02*
X150342857Y-98004819D01*
X150342857Y-98004819D02*
X150485714Y-98052438D01*
X150485714Y-98052438D02*
X150533333Y-98100057D01*
X151485714Y-99004819D02*
X150914286Y-99004819D01*
X151200000Y-99004819D02*
X151200000Y-98004819D01*
X151200000Y-98004819D02*
X151104762Y-98147676D01*
X151104762Y-98147676D02*
X151009524Y-98242914D01*
X151009524Y-98242914D02*
X150914286Y-98290533D01*
X143916667Y-70257200D02*
X144059524Y-70304819D01*
X144059524Y-70304819D02*
X144297619Y-70304819D01*
X144297619Y-70304819D02*
X144392857Y-70257200D01*
X144392857Y-70257200D02*
X144440476Y-70209580D01*
X144440476Y-70209580D02*
X144488095Y-70114342D01*
X144488095Y-70114342D02*
X144488095Y-70019104D01*
X144488095Y-70019104D02*
X144440476Y-69923866D01*
X144440476Y-69923866D02*
X144392857Y-69876247D01*
X144392857Y-69876247D02*
X144297619Y-69828628D01*
X144297619Y-69828628D02*
X144107143Y-69781009D01*
X144107143Y-69781009D02*
X144011905Y-69733390D01*
X144011905Y-69733390D02*
X143964286Y-69685771D01*
X143964286Y-69685771D02*
X143916667Y-69590533D01*
X143916667Y-69590533D02*
X143916667Y-69495295D01*
X143916667Y-69495295D02*
X143964286Y-69400057D01*
X143964286Y-69400057D02*
X144011905Y-69352438D01*
X144011905Y-69352438D02*
X144107143Y-69304819D01*
X144107143Y-69304819D02*
X144345238Y-69304819D01*
X144345238Y-69304819D02*
X144488095Y-69352438D01*
X144821429Y-69304819D02*
X145059524Y-70304819D01*
X145059524Y-70304819D02*
X145250000Y-69590533D01*
X145250000Y-69590533D02*
X145440476Y-70304819D01*
X145440476Y-70304819D02*
X145678572Y-69304819D01*
X146583333Y-70304819D02*
X146011905Y-70304819D01*
X146297619Y-70304819D02*
X146297619Y-69304819D01*
X146297619Y-69304819D02*
X146202381Y-69447676D01*
X146202381Y-69447676D02*
X146107143Y-69542914D01*
X146107143Y-69542914D02*
X146011905Y-69590533D01*
X145453095Y-141357819D02*
X145453095Y-142167342D01*
X145453095Y-142167342D02*
X145500714Y-142262580D01*
X145500714Y-142262580D02*
X145548333Y-142310200D01*
X145548333Y-142310200D02*
X145643571Y-142357819D01*
X145643571Y-142357819D02*
X145834047Y-142357819D01*
X145834047Y-142357819D02*
X145929285Y-142310200D01*
X145929285Y-142310200D02*
X145976904Y-142262580D01*
X145976904Y-142262580D02*
X146024523Y-142167342D01*
X146024523Y-142167342D02*
X146024523Y-141357819D01*
X147024523Y-142357819D02*
X146453095Y-142357819D01*
X146738809Y-142357819D02*
X146738809Y-141357819D01*
X146738809Y-141357819D02*
X146643571Y-141500676D01*
X146643571Y-141500676D02*
X146548333Y-141595914D01*
X146548333Y-141595914D02*
X146453095Y-141643533D01*
X131904819Y-96716666D02*
X131428628Y-97049999D01*
X131904819Y-97288094D02*
X130904819Y-97288094D01*
X130904819Y-97288094D02*
X130904819Y-96907142D01*
X130904819Y-96907142D02*
X130952438Y-96811904D01*
X130952438Y-96811904D02*
X131000057Y-96764285D01*
X131000057Y-96764285D02*
X131095295Y-96716666D01*
X131095295Y-96716666D02*
X131238152Y-96716666D01*
X131238152Y-96716666D02*
X131333390Y-96764285D01*
X131333390Y-96764285D02*
X131381009Y-96811904D01*
X131381009Y-96811904D02*
X131428628Y-96907142D01*
X131428628Y-96907142D02*
X131428628Y-97288094D01*
X131000057Y-96335713D02*
X130952438Y-96288094D01*
X130952438Y-96288094D02*
X130904819Y-96192856D01*
X130904819Y-96192856D02*
X130904819Y-95954761D01*
X130904819Y-95954761D02*
X130952438Y-95859523D01*
X130952438Y-95859523D02*
X131000057Y-95811904D01*
X131000057Y-95811904D02*
X131095295Y-95764285D01*
X131095295Y-95764285D02*
X131190533Y-95764285D01*
X131190533Y-95764285D02*
X131333390Y-95811904D01*
X131333390Y-95811904D02*
X131904819Y-96383332D01*
X131904819Y-96383332D02*
X131904819Y-95764285D01*
X142254819Y-103211904D02*
X143064342Y-103211904D01*
X143064342Y-103211904D02*
X143159580Y-103164285D01*
X143159580Y-103164285D02*
X143207200Y-103116666D01*
X143207200Y-103116666D02*
X143254819Y-103021428D01*
X143254819Y-103021428D02*
X143254819Y-102830952D01*
X143254819Y-102830952D02*
X143207200Y-102735714D01*
X143207200Y-102735714D02*
X143159580Y-102688095D01*
X143159580Y-102688095D02*
X143064342Y-102640476D01*
X143064342Y-102640476D02*
X142254819Y-102640476D01*
X142254819Y-102259523D02*
X142254819Y-101640476D01*
X142254819Y-101640476D02*
X142635771Y-101973809D01*
X142635771Y-101973809D02*
X142635771Y-101830952D01*
X142635771Y-101830952D02*
X142683390Y-101735714D01*
X142683390Y-101735714D02*
X142731009Y-101688095D01*
X142731009Y-101688095D02*
X142826247Y-101640476D01*
X142826247Y-101640476D02*
X143064342Y-101640476D01*
X143064342Y-101640476D02*
X143159580Y-101688095D01*
X143159580Y-101688095D02*
X143207200Y-101735714D01*
X143207200Y-101735714D02*
X143254819Y-101830952D01*
X143254819Y-101830952D02*
X143254819Y-102116666D01*
X143254819Y-102116666D02*
X143207200Y-102211904D01*
X143207200Y-102211904D02*
X143159580Y-102259523D01*
X150639580Y-91916666D02*
X150687200Y-91964285D01*
X150687200Y-91964285D02*
X150734819Y-92107142D01*
X150734819Y-92107142D02*
X150734819Y-92202380D01*
X150734819Y-92202380D02*
X150687200Y-92345237D01*
X150687200Y-92345237D02*
X150591961Y-92440475D01*
X150591961Y-92440475D02*
X150496723Y-92488094D01*
X150496723Y-92488094D02*
X150306247Y-92535713D01*
X150306247Y-92535713D02*
X150163390Y-92535713D01*
X150163390Y-92535713D02*
X149972914Y-92488094D01*
X149972914Y-92488094D02*
X149877676Y-92440475D01*
X149877676Y-92440475D02*
X149782438Y-92345237D01*
X149782438Y-92345237D02*
X149734819Y-92202380D01*
X149734819Y-92202380D02*
X149734819Y-92107142D01*
X149734819Y-92107142D02*
X149782438Y-91964285D01*
X149782438Y-91964285D02*
X149830057Y-91916666D01*
X149734819Y-91583332D02*
X149734819Y-90964285D01*
X149734819Y-90964285D02*
X150115771Y-91297618D01*
X150115771Y-91297618D02*
X150115771Y-91154761D01*
X150115771Y-91154761D02*
X150163390Y-91059523D01*
X150163390Y-91059523D02*
X150211009Y-91011904D01*
X150211009Y-91011904D02*
X150306247Y-90964285D01*
X150306247Y-90964285D02*
X150544342Y-90964285D01*
X150544342Y-90964285D02*
X150639580Y-91011904D01*
X150639580Y-91011904D02*
X150687200Y-91059523D01*
X150687200Y-91059523D02*
X150734819Y-91154761D01*
X150734819Y-91154761D02*
X150734819Y-91440475D01*
X150734819Y-91440475D02*
X150687200Y-91535713D01*
X150687200Y-91535713D02*
X150639580Y-91583332D01*
X148033333Y-99709580D02*
X147985714Y-99757200D01*
X147985714Y-99757200D02*
X147842857Y-99804819D01*
X147842857Y-99804819D02*
X147747619Y-99804819D01*
X147747619Y-99804819D02*
X147604762Y-99757200D01*
X147604762Y-99757200D02*
X147509524Y-99661961D01*
X147509524Y-99661961D02*
X147461905Y-99566723D01*
X147461905Y-99566723D02*
X147414286Y-99376247D01*
X147414286Y-99376247D02*
X147414286Y-99233390D01*
X147414286Y-99233390D02*
X147461905Y-99042914D01*
X147461905Y-99042914D02*
X147509524Y-98947676D01*
X147509524Y-98947676D02*
X147604762Y-98852438D01*
X147604762Y-98852438D02*
X147747619Y-98804819D01*
X147747619Y-98804819D02*
X147842857Y-98804819D01*
X147842857Y-98804819D02*
X147985714Y-98852438D01*
X147985714Y-98852438D02*
X148033333Y-98900057D01*
X148414286Y-98900057D02*
X148461905Y-98852438D01*
X148461905Y-98852438D02*
X148557143Y-98804819D01*
X148557143Y-98804819D02*
X148795238Y-98804819D01*
X148795238Y-98804819D02*
X148890476Y-98852438D01*
X148890476Y-98852438D02*
X148938095Y-98900057D01*
X148938095Y-98900057D02*
X148985714Y-98995295D01*
X148985714Y-98995295D02*
X148985714Y-99090533D01*
X148985714Y-99090533D02*
X148938095Y-99233390D01*
X148938095Y-99233390D02*
X148366667Y-99804819D01*
X148366667Y-99804819D02*
X148985714Y-99804819D01*
X132579580Y-100616666D02*
X132627200Y-100664285D01*
X132627200Y-100664285D02*
X132674819Y-100807142D01*
X132674819Y-100807142D02*
X132674819Y-100902380D01*
X132674819Y-100902380D02*
X132627200Y-101045237D01*
X132627200Y-101045237D02*
X132531961Y-101140475D01*
X132531961Y-101140475D02*
X132436723Y-101188094D01*
X132436723Y-101188094D02*
X132246247Y-101235713D01*
X132246247Y-101235713D02*
X132103390Y-101235713D01*
X132103390Y-101235713D02*
X131912914Y-101188094D01*
X131912914Y-101188094D02*
X131817676Y-101140475D01*
X131817676Y-101140475D02*
X131722438Y-101045237D01*
X131722438Y-101045237D02*
X131674819Y-100902380D01*
X131674819Y-100902380D02*
X131674819Y-100807142D01*
X131674819Y-100807142D02*
X131722438Y-100664285D01*
X131722438Y-100664285D02*
X131770057Y-100616666D01*
X132674819Y-100140475D02*
X132674819Y-99949999D01*
X132674819Y-99949999D02*
X132627200Y-99854761D01*
X132627200Y-99854761D02*
X132579580Y-99807142D01*
X132579580Y-99807142D02*
X132436723Y-99711904D01*
X132436723Y-99711904D02*
X132246247Y-99664285D01*
X132246247Y-99664285D02*
X131865295Y-99664285D01*
X131865295Y-99664285D02*
X131770057Y-99711904D01*
X131770057Y-99711904D02*
X131722438Y-99759523D01*
X131722438Y-99759523D02*
X131674819Y-99854761D01*
X131674819Y-99854761D02*
X131674819Y-100045237D01*
X131674819Y-100045237D02*
X131722438Y-100140475D01*
X131722438Y-100140475D02*
X131770057Y-100188094D01*
X131770057Y-100188094D02*
X131865295Y-100235713D01*
X131865295Y-100235713D02*
X132103390Y-100235713D01*
X132103390Y-100235713D02*
X132198628Y-100188094D01*
X132198628Y-100188094D02*
X132246247Y-100140475D01*
X132246247Y-100140475D02*
X132293866Y-100045237D01*
X132293866Y-100045237D02*
X132293866Y-99854761D01*
X132293866Y-99854761D02*
X132246247Y-99759523D01*
X132246247Y-99759523D02*
X132198628Y-99711904D01*
X132198628Y-99711904D02*
X132103390Y-99664285D01*
X142151095Y-98683719D02*
X142151095Y-99493242D01*
X142151095Y-99493242D02*
X142198714Y-99588480D01*
X142198714Y-99588480D02*
X142246333Y-99636100D01*
X142246333Y-99636100D02*
X142341571Y-99683719D01*
X142341571Y-99683719D02*
X142532047Y-99683719D01*
X142532047Y-99683719D02*
X142627285Y-99636100D01*
X142627285Y-99636100D02*
X142674904Y-99588480D01*
X142674904Y-99588480D02*
X142722523Y-99493242D01*
X142722523Y-99493242D02*
X142722523Y-98683719D01*
X143151095Y-98778957D02*
X143198714Y-98731338D01*
X143198714Y-98731338D02*
X143293952Y-98683719D01*
X143293952Y-98683719D02*
X143532047Y-98683719D01*
X143532047Y-98683719D02*
X143627285Y-98731338D01*
X143627285Y-98731338D02*
X143674904Y-98778957D01*
X143674904Y-98778957D02*
X143722523Y-98874195D01*
X143722523Y-98874195D02*
X143722523Y-98969433D01*
X143722523Y-98969433D02*
X143674904Y-99112290D01*
X143674904Y-99112290D02*
X143103476Y-99683719D01*
X143103476Y-99683719D02*
X143722523Y-99683719D01*
X150833333Y-85209580D02*
X150785714Y-85257200D01*
X150785714Y-85257200D02*
X150642857Y-85304819D01*
X150642857Y-85304819D02*
X150547619Y-85304819D01*
X150547619Y-85304819D02*
X150404762Y-85257200D01*
X150404762Y-85257200D02*
X150309524Y-85161961D01*
X150309524Y-85161961D02*
X150261905Y-85066723D01*
X150261905Y-85066723D02*
X150214286Y-84876247D01*
X150214286Y-84876247D02*
X150214286Y-84733390D01*
X150214286Y-84733390D02*
X150261905Y-84542914D01*
X150261905Y-84542914D02*
X150309524Y-84447676D01*
X150309524Y-84447676D02*
X150404762Y-84352438D01*
X150404762Y-84352438D02*
X150547619Y-84304819D01*
X150547619Y-84304819D02*
X150642857Y-84304819D01*
X150642857Y-84304819D02*
X150785714Y-84352438D01*
X150785714Y-84352438D02*
X150833333Y-84400057D01*
X151738095Y-84304819D02*
X151261905Y-84304819D01*
X151261905Y-84304819D02*
X151214286Y-84781009D01*
X151214286Y-84781009D02*
X151261905Y-84733390D01*
X151261905Y-84733390D02*
X151357143Y-84685771D01*
X151357143Y-84685771D02*
X151595238Y-84685771D01*
X151595238Y-84685771D02*
X151690476Y-84733390D01*
X151690476Y-84733390D02*
X151738095Y-84781009D01*
X151738095Y-84781009D02*
X151785714Y-84876247D01*
X151785714Y-84876247D02*
X151785714Y-85114342D01*
X151785714Y-85114342D02*
X151738095Y-85209580D01*
X151738095Y-85209580D02*
X151690476Y-85257200D01*
X151690476Y-85257200D02*
X151595238Y-85304819D01*
X151595238Y-85304819D02*
X151357143Y-85304819D01*
X151357143Y-85304819D02*
X151261905Y-85257200D01*
X151261905Y-85257200D02*
X151214286Y-85209580D01*
X148433333Y-84809580D02*
X148385714Y-84857200D01*
X148385714Y-84857200D02*
X148242857Y-84904819D01*
X148242857Y-84904819D02*
X148147619Y-84904819D01*
X148147619Y-84904819D02*
X148004762Y-84857200D01*
X148004762Y-84857200D02*
X147909524Y-84761961D01*
X147909524Y-84761961D02*
X147861905Y-84666723D01*
X147861905Y-84666723D02*
X147814286Y-84476247D01*
X147814286Y-84476247D02*
X147814286Y-84333390D01*
X147814286Y-84333390D02*
X147861905Y-84142914D01*
X147861905Y-84142914D02*
X147909524Y-84047676D01*
X147909524Y-84047676D02*
X148004762Y-83952438D01*
X148004762Y-83952438D02*
X148147619Y-83904819D01*
X148147619Y-83904819D02*
X148242857Y-83904819D01*
X148242857Y-83904819D02*
X148385714Y-83952438D01*
X148385714Y-83952438D02*
X148433333Y-84000057D01*
X149290476Y-83904819D02*
X149100000Y-83904819D01*
X149100000Y-83904819D02*
X149004762Y-83952438D01*
X149004762Y-83952438D02*
X148957143Y-84000057D01*
X148957143Y-84000057D02*
X148861905Y-84142914D01*
X148861905Y-84142914D02*
X148814286Y-84333390D01*
X148814286Y-84333390D02*
X148814286Y-84714342D01*
X148814286Y-84714342D02*
X148861905Y-84809580D01*
X148861905Y-84809580D02*
X148909524Y-84857200D01*
X148909524Y-84857200D02*
X149004762Y-84904819D01*
X149004762Y-84904819D02*
X149195238Y-84904819D01*
X149195238Y-84904819D02*
X149290476Y-84857200D01*
X149290476Y-84857200D02*
X149338095Y-84809580D01*
X149338095Y-84809580D02*
X149385714Y-84714342D01*
X149385714Y-84714342D02*
X149385714Y-84476247D01*
X149385714Y-84476247D02*
X149338095Y-84381009D01*
X149338095Y-84381009D02*
X149290476Y-84333390D01*
X149290476Y-84333390D02*
X149195238Y-84285771D01*
X149195238Y-84285771D02*
X149004762Y-84285771D01*
X149004762Y-84285771D02*
X148909524Y-84333390D01*
X148909524Y-84333390D02*
X148861905Y-84381009D01*
X148861905Y-84381009D02*
X148814286Y-84476247D01*
%TO.C,S1*%
D11*
X123700000Y-65200000D02*
G75*
G02*
X123500000Y-65200000I-100000J0D01*
G01*
X123500000Y-65200000D02*
G75*
G02*
X123700000Y-65200000I100000J0D01*
G01*
D12*
X126400000Y-64650000D02*
X120600000Y-64650000D01*
X126400000Y-51850000D02*
X126400000Y-64650000D01*
X120600000Y-64650000D02*
X120600000Y-51850000D01*
X120600000Y-51850000D02*
X126400000Y-51850000D01*
%TO.C,S2*%
D11*
X158700000Y-65200000D02*
G75*
G02*
X158500000Y-65200000I-100000J0D01*
G01*
X158500000Y-65200000D02*
G75*
G02*
X158700000Y-65200000I100000J0D01*
G01*
D12*
X161400000Y-64650000D02*
X155600000Y-64650000D01*
X161400000Y-51850000D02*
X161400000Y-64650000D01*
X155600000Y-64650000D02*
X155600000Y-51850000D01*
X155600000Y-51850000D02*
X161400000Y-51850000D01*
%TO.C,R3*%
D13*
X125772936Y-95315000D02*
X126227064Y-95315000D01*
X125772936Y-96785000D02*
X126227064Y-96785000D01*
%TO.C,C10*%
X136175000Y-100188748D02*
X136175000Y-100711252D01*
X137645000Y-100188748D02*
X137645000Y-100711252D01*
%TO.C,C8*%
X136275000Y-104811252D02*
X136275000Y-104288748D01*
X137745000Y-104811252D02*
X137745000Y-104288748D01*
%TO.C,C1*%
X149865000Y-96111252D02*
X149865000Y-95588748D01*
X151335000Y-96111252D02*
X151335000Y-95588748D01*
%TO.C,SW1*%
X134450000Y-56750000D02*
X138550000Y-56750000D01*
X134450000Y-59150000D02*
X134450000Y-56750000D01*
X134450000Y-63950000D02*
X134450000Y-61350000D01*
X134450000Y-68550000D02*
X134450000Y-66150000D01*
X138550000Y-68550000D02*
X134450000Y-68550000D01*
X140550000Y-63150000D02*
X140550000Y-62150000D01*
X141050000Y-62650000D02*
X140050000Y-62650000D01*
X142550000Y-56750000D02*
X146650000Y-56750000D01*
X142550000Y-68550000D02*
X146650000Y-68550000D01*
X146650000Y-68550000D02*
X146650000Y-56750000D01*
X147750000Y-66750000D02*
X148050000Y-66450000D01*
X148050000Y-66450000D02*
X148350000Y-66750000D01*
X148350000Y-66750000D02*
X147750000Y-66750000D01*
X143550000Y-62650000D02*
G75*
G02*
X137550000Y-62650000I-3000000J0D01*
G01*
X137550000Y-62650000D02*
G75*
G02*
X143550000Y-62650000I3000000J0D01*
G01*
%TO.C,U1*%
D12*
X131610000Y-107740000D02*
X149390000Y-107740000D01*
X131610000Y-140760000D02*
X131610000Y-107740000D01*
X149390000Y-107740000D02*
X149390000Y-140760000D01*
X149390000Y-140760000D02*
X131610000Y-140760000D01*
%TO.C,R2*%
D13*
X132365000Y-96777064D02*
X132365000Y-96322936D01*
X133835000Y-96777064D02*
X133835000Y-96322936D01*
%TO.C,U3*%
X138840000Y-101690000D02*
X138890000Y-101690000D01*
X138840000Y-103210000D02*
X138840000Y-101690000D01*
X139840000Y-103210000D02*
X138840000Y-103210000D01*
X140010000Y-101690000D02*
X140790000Y-101690000D01*
X141910000Y-101690000D02*
X141960000Y-101690000D01*
X141960000Y-101690000D02*
X141960000Y-103210000D01*
X141960000Y-103210000D02*
X140960000Y-103210000D01*
X140780000Y-101150000D02*
X140450000Y-101390000D01*
X140450000Y-100910000D01*
X140780000Y-101150000D01*
G36*
X140780000Y-101150000D02*
G01*
X140450000Y-101390000D01*
X140450000Y-100910000D01*
X140780000Y-101150000D01*
G37*
%TO.C,C3*%
X147865000Y-91488748D02*
X147865000Y-92011252D01*
X149335000Y-91488748D02*
X149335000Y-92011252D01*
%TO.C,C7*%
X133265000Y-104288748D02*
X133265000Y-104811252D01*
X134735000Y-104288748D02*
X134735000Y-104811252D01*
%TO.C,C2*%
X147465000Y-95588748D02*
X147465000Y-96111252D01*
X148935000Y-95588748D02*
X148935000Y-96111252D01*
%TO.C,C9*%
X133165000Y-100711252D02*
X133165000Y-100188748D01*
X134635000Y-100711252D02*
X134635000Y-100188748D01*
%TO.C,U2*%
D11*
X135950000Y-82150000D02*
X135950000Y-98350000D01*
X135950000Y-98350000D02*
X145050000Y-98350000D01*
X145050000Y-82150000D02*
X135950000Y-82150000D01*
X145050000Y-98350000D02*
X145050000Y-82150000D01*
%TO.C,C5*%
D13*
X150265000Y-87973752D02*
X150265000Y-87451248D01*
X151735000Y-87973752D02*
X151735000Y-87451248D01*
%TO.C,C6*%
X147865000Y-87451248D02*
X147865000Y-87973752D01*
X149335000Y-87451248D02*
X149335000Y-87973752D01*
%TD*%
M02*
