%TF.GenerationSoftware,KiCad,Pcbnew,10.0.5*%
%TF.CreationDate,2026-07-23T19:13:24+01:00*%
%TF.ProjectId,DIY_Mouse,4449595f-4d6f-4757-9365-2e6b69636164,rev?*%
%TF.SameCoordinates,Original*%
%TF.FileFunction,Copper,L2,Bot*%
%TF.FilePolarity,Positive*%
%FSLAX46Y46*%
G04 Gerber Fmt 4.6, Leading zero omitted, Abs format (unit mm)*
G04 Created by KiCad (PCBNEW 10.0.5) date 2026-07-23 19:13:24*
%MOMM*%
%LPD*%
G01*
G04 APERTURE LIST*
%TA.AperFunction,ComponentPad*%
%ADD10C,2.000000*%
%TD*%
%TA.AperFunction,ComponentPad*%
%ADD11R,2.000000X2.000000*%
%TD*%
%TA.AperFunction,ComponentPad*%
%ADD12R,3.200000X2.000000*%
%TD*%
%TA.AperFunction,ComponentPad*%
%ADD13C,1.879600*%
%TD*%
%TA.AperFunction,ComponentPad*%
%ADD14C,1.300000*%
%TD*%
%TA.AperFunction,ViaPad*%
%ADD15C,0.600000*%
%TD*%
%TA.AperFunction,Conductor*%
%ADD16C,0.200000*%
%TD*%
G04 APERTURE END LIST*
D10*
%TO.P,S1,3*%
%TO.N,N/C*%
X123500000Y-53170000D03*
%TO.P,S1,2*%
%TO.N,GND*%
X123500000Y-58250000D03*
D11*
%TO.P,S1,1*%
%TO.N,Net-(U1-D4)*%
X123500000Y-63330000D03*
%TD*%
D10*
%TO.P,S2,3*%
%TO.N,N/C*%
X158500000Y-53170000D03*
%TO.P,S2,2*%
%TO.N,GND*%
X158500000Y-58250000D03*
D11*
%TO.P,S2,1*%
%TO.N,Net-(U1-D9)*%
X158500000Y-63330000D03*
%TD*%
%TO.P,SW1,A,A_A*%
%TO.N,/Rot A*%
X148050000Y-65150000D03*
D10*
%TO.P,SW1,B,B_B*%
%TO.N,/Rot B*%
X148050000Y-60150000D03*
%TO.P,SW1,C,C_C*%
%TO.N,GND*%
X148050000Y-62650000D03*
D12*
%TO.P,SW1,MP*%
%TO.N,N/C*%
X140550000Y-68250000D03*
X140550000Y-57050000D03*
D10*
%TO.P,SW1,S1,S1_S1*%
%TO.N,GND*%
X133550000Y-60150000D03*
%TO.P,SW1,S2,S2_S2*%
%TO.N,/Rot Switch*%
X133550000Y-65150000D03*
%TD*%
D13*
%TO.P,U1,JP6_1,RAW_JP6_1*%
%TO.N,unconnected-(U1-RAW-PadJP6_1)*%
X132880000Y-136950000D03*
%TO.P,U1,JP6_2,GND_JP6_2*%
%TO.N,GND*%
X132880000Y-134410000D03*
%TO.P,U1,JP6_3,~{RESET}_JP6_3*%
%TO.N,unconnected-(U1-~{RESET}-PadJP6_3)*%
X132880000Y-131870000D03*
%TO.P,U1,JP6_4,VCC_JP6_4*%
%TO.N,+3.3V*%
X132880000Y-129330000D03*
%TO.P,U1,JP6_5,A3_JP6_5*%
%TO.N,unconnected-(U1-A3-PadJP6_5)*%
X132880000Y-126790000D03*
%TO.P,U1,JP6_6,A2_JP6_6*%
%TO.N,unconnected-(U1-A2-PadJP6_6)*%
X132880000Y-124250000D03*
%TO.P,U1,JP6_7,A1_JP6_7*%
%TO.N,unconnected-(U1-A1-PadJP6_7)*%
X132880000Y-121710000D03*
%TO.P,U1,JP6_8,A0_JP6_8*%
%TO.N,unconnected-(U1-A0-PadJP6_8)*%
X132880000Y-119170000D03*
%TO.P,U1,JP6_9,SCK_JP6_9*%
%TO.N,/SCLK*%
X132880000Y-116630000D03*
%TO.P,U1,JP6_10,MISO_JP6_10*%
%TO.N,/MISO*%
X132880000Y-114090000D03*
%TO.P,U1,JP6_11,MOSI_JP6_11*%
%TO.N,/MOSI*%
X132880000Y-111550000D03*
%TO.P,U1,JP6_12,D10_JP6_12*%
%TO.N,/NCS*%
X132880000Y-109010000D03*
%TO.P,U1,JP7_1,D9_JP7_1*%
%TO.N,Net-(U1-D9)*%
X148120000Y-109010000D03*
%TO.P,U1,JP7_2,D8_JP7_2*%
%TO.N,/Rot Switch*%
X148120000Y-111550000D03*
%TO.P,U1,JP7_3,D7_JP7_3*%
%TO.N,/Rot B*%
X148120000Y-114090000D03*
%TO.P,U1,JP7_4,D6_JP7_4*%
%TO.N,/Rot A*%
X148120000Y-116630000D03*
%TO.P,U1,JP7_5,D5_JP7_5*%
%TO.N,unconnected-(U1-D5-PadJP7_5)*%
X148120000Y-119170000D03*
%TO.P,U1,JP7_6,D4_JP7_6*%
%TO.N,Net-(U1-D4)*%
X148120000Y-121710000D03*
%TO.P,U1,JP7_7,D3_JP7_7*%
%TO.N,unconnected-(U1-D3-PadJP7_7)*%
X148120000Y-124250000D03*
%TO.P,U1,JP7_8,D2_JP7_8*%
%TO.N,/MOT*%
X148120000Y-126790000D03*
%TO.P,U1,JP7_9,GND_JP7_9*%
%TO.N,GND*%
X148120000Y-129330000D03*
%TO.P,U1,JP7_10,GND_JP7_10*%
X148120000Y-131870000D03*
%TO.P,U1,JP7_11,RXI_JP7_11*%
%TO.N,unconnected-(U1-RXI-PadJP7_11)*%
X148120000Y-134410000D03*
%TO.P,U1,JP7_12,TXO_JP7_12*%
%TO.N,unconnected-(U1-TXO-PadJP7_12)*%
X148120000Y-136950000D03*
%TD*%
D14*
%TO.P,U2,1*%
%TO.N,N/C*%
X145850000Y-96925000D03*
%TO.P,U2,2*%
X145850000Y-95145000D03*
%TO.P,U2,3,VDDPIX_3*%
%TO.N,Net-(U2-VDDPIX)*%
X145850000Y-93365000D03*
%TO.P,U2,4,VDD_4*%
%TO.N,/+1.9V*%
X145850000Y-91585000D03*
%TO.P,U2,5,VDDIO_5*%
%TO.N,+3.3V*%
X145850000Y-89805000D03*
%TO.P,U2,6*%
%TO.N,N/C*%
X145850000Y-88025000D03*
%TO.P,U2,7,~{RESET}_7*%
%TO.N,unconnected-(U2-~{RESET}-Pad7)*%
X145850000Y-86245000D03*
%TO.P,U2,8,GND_8*%
%TO.N,GND*%
X145850000Y-84465000D03*
%TO.P,U2,9,MOTION_9*%
%TO.N,/MOT*%
X135150000Y-83575000D03*
%TO.P,U2,10,SCLK_10*%
%TO.N,/SCLK*%
X135150000Y-85355000D03*
%TO.P,U2,11,MOSI_11*%
%TO.N,/MOSI*%
X135150000Y-87135000D03*
%TO.P,U2,12,MISO_12*%
%TO.N,/MISO*%
X135150000Y-88915000D03*
%TO.P,U2,13,~{CS}_13*%
%TO.N,/NCS*%
X135150000Y-90695000D03*
%TO.P,U2,14*%
%TO.N,N/C*%
X135150000Y-92475000D03*
%TO.P,U2,15,LED_P_15*%
%TO.N,Net-(U2-LED_P)*%
X135150000Y-94255000D03*
%TO.P,U2,16*%
%TO.N,N/C*%
X135150000Y-96035000D03*
%TD*%
D15*
%TO.N,GND*%
X148200000Y-98350000D03*
X138300000Y-102150000D03*
X138500000Y-103850000D03*
X148600000Y-85350000D03*
X142600000Y-101550000D03*
X150300000Y-90750000D03*
%TO.N,/SCLK*%
X128700000Y-96750000D03*
X127600000Y-94150000D03*
X127900000Y-107850000D03*
X127900000Y-110150000D03*
%TO.N,/MOSI*%
X129300000Y-93550000D03*
X129300000Y-96150000D03*
%TD*%
%TO.N,/SCLK*%
D16*
X128700000Y-96750000D02*
X128700000Y-95250000D01*
X128700000Y-95250000D02*
X127600000Y-94150000D01*
X127900000Y-110150000D02*
X127900000Y-107850000D01*
%TO.N,/MOSI*%
X129300000Y-96150000D02*
X129300000Y-93550000D01*
%TD*%
%TA.AperFunction,Conductor*%
%TO.N,GND*%
G36*
X170192539Y-40520185D02*
G01*
X170238294Y-40572989D01*
X170249500Y-40624500D01*
X170249500Y-144875500D01*
X170229815Y-144942539D01*
X170177011Y-144988294D01*
X170125500Y-144999500D01*
X110874500Y-144999500D01*
X110807461Y-144979815D01*
X110761706Y-144927011D01*
X110750500Y-144875500D01*
X110750500Y-107771153D01*
X127099500Y-107771153D01*
X127099500Y-107928846D01*
X127130261Y-108083489D01*
X127130264Y-108083501D01*
X127190602Y-108229172D01*
X127190609Y-108229185D01*
X127278602Y-108360874D01*
X127299480Y-108427551D01*
X127299500Y-108429765D01*
X127299500Y-109570234D01*
X127279815Y-109637273D01*
X127278602Y-109639125D01*
X127190609Y-109770814D01*
X127190602Y-109770827D01*
X127130264Y-109916498D01*
X127130261Y-109916510D01*
X127099500Y-110071153D01*
X127099500Y-110228846D01*
X127130261Y-110383489D01*
X127130264Y-110383501D01*
X127190602Y-110529172D01*
X127190609Y-110529185D01*
X127278210Y-110660288D01*
X127278213Y-110660292D01*
X127389707Y-110771786D01*
X127389711Y-110771789D01*
X127520814Y-110859390D01*
X127520827Y-110859397D01*
X127666498Y-110919735D01*
X127666503Y-110919737D01*
X127821153Y-110950499D01*
X127821156Y-110950500D01*
X127821158Y-110950500D01*
X127978844Y-110950500D01*
X127978845Y-110950499D01*
X128133497Y-110919737D01*
X128279179Y-110859394D01*
X128410289Y-110771789D01*
X128521789Y-110660289D01*
X128609394Y-110529179D01*
X128669737Y-110383497D01*
X128700500Y-110228842D01*
X128700500Y-110071158D01*
X128700500Y-110071155D01*
X128700499Y-110071153D01*
X128669738Y-109916510D01*
X128669737Y-109916503D01*
X128669735Y-109916498D01*
X128609397Y-109770827D01*
X128609390Y-109770814D01*
X128521398Y-109639125D01*
X128500520Y-109572447D01*
X128500500Y-109570234D01*
X128500500Y-108896646D01*
X131439700Y-108896646D01*
X131439700Y-109123353D01*
X131475165Y-109347272D01*
X131545219Y-109562880D01*
X131545220Y-109562883D01*
X131648147Y-109764885D01*
X131781394Y-109948286D01*
X131781398Y-109948291D01*
X131941708Y-110108601D01*
X131941713Y-110108605D01*
X132039542Y-110179682D01*
X132082208Y-110235012D01*
X132088187Y-110304625D01*
X132055582Y-110366420D01*
X132039542Y-110380318D01*
X131941713Y-110451394D01*
X131941708Y-110451398D01*
X131781398Y-110611708D01*
X131781394Y-110611713D01*
X131648147Y-110795114D01*
X131545220Y-110997116D01*
X131545219Y-110997119D01*
X131475165Y-111212727D01*
X131439700Y-111436646D01*
X131439700Y-111663353D01*
X131475165Y-111887272D01*
X131545219Y-112102880D01*
X131545220Y-112102883D01*
X131648147Y-112304885D01*
X131781394Y-112488286D01*
X131781398Y-112488291D01*
X131941708Y-112648601D01*
X131941713Y-112648605D01*
X132039542Y-112719682D01*
X132082208Y-112775012D01*
X132088187Y-112844625D01*
X132055582Y-112906420D01*
X132039542Y-112920318D01*
X131941713Y-112991394D01*
X131941708Y-112991398D01*
X131781398Y-113151708D01*
X131781394Y-113151713D01*
X131648147Y-113335114D01*
X131545220Y-113537116D01*
X131545219Y-113537119D01*
X131475165Y-113752727D01*
X131439700Y-113976646D01*
X131439700Y-114203353D01*
X131475165Y-114427272D01*
X131545219Y-114642880D01*
X131545220Y-114642883D01*
X131648147Y-114844885D01*
X131781394Y-115028286D01*
X131781398Y-115028291D01*
X131941708Y-115188601D01*
X131941713Y-115188605D01*
X132039542Y-115259682D01*
X132082208Y-115315012D01*
X132088187Y-115384625D01*
X132055582Y-115446420D01*
X132039542Y-115460318D01*
X131941713Y-115531394D01*
X131941708Y-115531398D01*
X131781398Y-115691708D01*
X131781394Y-115691713D01*
X131648147Y-115875114D01*
X131545220Y-116077116D01*
X131545219Y-116077119D01*
X131475165Y-116292727D01*
X131439700Y-116516646D01*
X131439700Y-116743353D01*
X131475165Y-116967272D01*
X131545219Y-117182880D01*
X131545220Y-117182883D01*
X131648147Y-117384885D01*
X131781394Y-117568286D01*
X131781398Y-117568291D01*
X131941708Y-117728601D01*
X131941713Y-117728605D01*
X132039542Y-117799682D01*
X132082208Y-117855012D01*
X132088187Y-117924625D01*
X132055582Y-117986420D01*
X132039542Y-118000318D01*
X131941713Y-118071394D01*
X131941708Y-118071398D01*
X131781398Y-118231708D01*
X131781394Y-118231713D01*
X131648147Y-118415114D01*
X131545220Y-118617116D01*
X131545219Y-118617119D01*
X131475165Y-118832727D01*
X131439700Y-119056646D01*
X131439700Y-119283353D01*
X131475165Y-119507272D01*
X131545219Y-119722880D01*
X131545220Y-119722883D01*
X131648147Y-119924885D01*
X131781394Y-120108286D01*
X131781398Y-120108291D01*
X131941708Y-120268601D01*
X131941713Y-120268605D01*
X132039542Y-120339682D01*
X132082208Y-120395012D01*
X132088187Y-120464625D01*
X132055582Y-120526420D01*
X132039542Y-120540318D01*
X131941713Y-120611394D01*
X131941708Y-120611398D01*
X131781398Y-120771708D01*
X131781394Y-120771713D01*
X131648147Y-120955114D01*
X131545220Y-121157116D01*
X131545219Y-121157119D01*
X131475165Y-121372727D01*
X131439700Y-121596646D01*
X131439700Y-121823353D01*
X131475165Y-122047272D01*
X131545219Y-122262880D01*
X131545220Y-122262883D01*
X131648147Y-122464885D01*
X131781394Y-122648286D01*
X131781398Y-122648291D01*
X131941708Y-122808601D01*
X131941713Y-122808605D01*
X132039542Y-122879682D01*
X132082208Y-122935012D01*
X132088187Y-123004625D01*
X132055582Y-123066420D01*
X132039542Y-123080318D01*
X131941713Y-123151394D01*
X131941708Y-123151398D01*
X131781398Y-123311708D01*
X131781394Y-123311713D01*
X131648147Y-123495114D01*
X131545220Y-123697116D01*
X131545219Y-123697119D01*
X131475165Y-123912727D01*
X131439700Y-124136646D01*
X131439700Y-124363353D01*
X131475165Y-124587272D01*
X131545219Y-124802880D01*
X131545220Y-124802883D01*
X131648147Y-125004885D01*
X131781394Y-125188286D01*
X131781398Y-125188291D01*
X131941708Y-125348601D01*
X131941713Y-125348605D01*
X132039542Y-125419682D01*
X132082208Y-125475012D01*
X132088187Y-125544625D01*
X132055582Y-125606420D01*
X132039542Y-125620318D01*
X131941713Y-125691394D01*
X131941708Y-125691398D01*
X131781398Y-125851708D01*
X131781394Y-125851713D01*
X131648147Y-126035114D01*
X131545220Y-126237116D01*
X131545219Y-126237119D01*
X131475165Y-126452727D01*
X131439700Y-126676646D01*
X131439700Y-126903353D01*
X131475165Y-127127272D01*
X131545219Y-127342880D01*
X131545220Y-127342883D01*
X131648147Y-127544885D01*
X131781394Y-127728286D01*
X131781398Y-127728291D01*
X131941708Y-127888601D01*
X131941713Y-127888605D01*
X132039542Y-127959682D01*
X132082208Y-128015012D01*
X132088187Y-128084625D01*
X132055582Y-128146420D01*
X132039542Y-128160318D01*
X131941713Y-128231394D01*
X131941708Y-128231398D01*
X131781398Y-128391708D01*
X131781394Y-128391713D01*
X131648147Y-128575114D01*
X131545220Y-128777116D01*
X131545219Y-128777119D01*
X131475165Y-128992727D01*
X131439700Y-129216646D01*
X131439700Y-129443353D01*
X131475165Y-129667272D01*
X131545219Y-129882880D01*
X131545220Y-129882883D01*
X131648147Y-130084885D01*
X131781394Y-130268286D01*
X131781398Y-130268291D01*
X131941708Y-130428601D01*
X131941713Y-130428605D01*
X132039542Y-130499682D01*
X132082208Y-130555012D01*
X132088187Y-130624625D01*
X132055582Y-130686420D01*
X132039542Y-130700318D01*
X131941713Y-130771394D01*
X131941708Y-130771398D01*
X131781398Y-130931708D01*
X131781394Y-130931713D01*
X131648147Y-131115114D01*
X131545220Y-131317116D01*
X131545219Y-131317119D01*
X131475165Y-131532727D01*
X131439700Y-131756646D01*
X131439700Y-131983353D01*
X131475165Y-132207272D01*
X131545219Y-132422880D01*
X131545220Y-132422883D01*
X131648147Y-132624885D01*
X131781394Y-132808286D01*
X131781398Y-132808291D01*
X131941708Y-132968601D01*
X131941713Y-132968605D01*
X132039967Y-133039991D01*
X132082633Y-133095321D01*
X132088612Y-133164934D01*
X132056006Y-133226729D01*
X132054157Y-133228330D01*
X132053991Y-133230439D01*
X132744057Y-133920504D01*
X132683919Y-133936619D01*
X132568080Y-134003498D01*
X132473498Y-134098080D01*
X132406619Y-134213919D01*
X132390504Y-134274057D01*
X131700439Y-133583991D01*
X131700438Y-133583992D01*
X131648575Y-133655376D01*
X131545683Y-133857311D01*
X131475653Y-134072841D01*
X131475653Y-134072844D01*
X131440200Y-134296685D01*
X131440200Y-134523314D01*
X131475653Y-134747155D01*
X131475653Y-134747158D01*
X131545683Y-134962688D01*
X131648573Y-135164620D01*
X131700439Y-135236006D01*
X131700439Y-135236007D01*
X132390504Y-134545941D01*
X132406619Y-134606081D01*
X132473498Y-134721920D01*
X132568080Y-134816502D01*
X132683919Y-134883381D01*
X132744057Y-134899494D01*
X132053991Y-135589559D01*
X132054692Y-135598465D01*
X132082634Y-135634699D01*
X132088615Y-135704312D01*
X132056010Y-135766108D01*
X132039970Y-135780007D01*
X131941708Y-135851398D01*
X131781398Y-136011708D01*
X131781394Y-136011713D01*
X131648147Y-136195114D01*
X131545220Y-136397116D01*
X131545219Y-136397119D01*
X131475165Y-136612727D01*
X131439700Y-136836646D01*
X131439700Y-137063353D01*
X131475165Y-137287272D01*
X131545219Y-137502880D01*
X131545220Y-137502883D01*
X131648147Y-137704885D01*
X131781394Y-137888286D01*
X131781398Y-137888291D01*
X131941708Y-138048601D01*
X131941713Y-138048605D01*
X132053459Y-138129792D01*
X132125118Y-138181855D01*
X132257166Y-138249137D01*
X132327116Y-138284779D01*
X132327119Y-138284780D01*
X132434923Y-138319807D01*
X132542729Y-138354835D01*
X132766646Y-138390300D01*
X132766647Y-138390300D01*
X132993353Y-138390300D01*
X132993354Y-138390300D01*
X133217271Y-138354835D01*
X133432883Y-138284779D01*
X133634882Y-138181855D01*
X133818293Y-138048600D01*
X133978600Y-137888293D01*
X134111855Y-137704882D01*
X134214779Y-137502883D01*
X134284835Y-137287271D01*
X134307572Y-137143713D01*
X139149500Y-137143713D01*
X139149500Y-137356286D01*
X139182753Y-137566239D01*
X139248444Y-137768414D01*
X139344951Y-137957820D01*
X139469890Y-138129786D01*
X139620213Y-138280109D01*
X139792179Y-138405048D01*
X139792181Y-138405049D01*
X139792184Y-138405051D01*
X139981588Y-138501557D01*
X140183757Y-138567246D01*
X140393713Y-138600500D01*
X140393714Y-138600500D01*
X140606286Y-138600500D01*
X140606287Y-138600500D01*
X140816243Y-138567246D01*
X141018412Y-138501557D01*
X141207816Y-138405051D01*
X141276933Y-138354835D01*
X141379786Y-138280109D01*
X141379788Y-138280106D01*
X141379792Y-138280104D01*
X141530104Y-138129792D01*
X141530106Y-138129788D01*
X141530109Y-138129786D01*
X141655048Y-137957820D01*
X141655047Y-137957820D01*
X141655051Y-137957816D01*
X141751557Y-137768412D01*
X141817246Y-137566243D01*
X141850500Y-137356287D01*
X141850500Y-137143713D01*
X141817246Y-136933757D01*
X141751557Y-136731588D01*
X141655051Y-136542184D01*
X141655049Y-136542181D01*
X141655048Y-136542179D01*
X141530109Y-136370213D01*
X141379786Y-136219890D01*
X141207820Y-136094951D01*
X141018414Y-135998444D01*
X141018413Y-135998443D01*
X141018412Y-135998443D01*
X140816243Y-135932754D01*
X140816241Y-135932753D01*
X140816240Y-135932753D01*
X140654957Y-135907208D01*
X140606287Y-135899500D01*
X140393713Y-135899500D01*
X140345042Y-135907208D01*
X140183760Y-135932753D01*
X139981585Y-135998444D01*
X139792179Y-136094951D01*
X139620213Y-136219890D01*
X139469890Y-136370213D01*
X139344951Y-136542179D01*
X139248444Y-136731585D01*
X139182753Y-136933760D01*
X139149500Y-137143713D01*
X134307572Y-137143713D01*
X134320300Y-137063354D01*
X134320300Y-136836646D01*
X134284835Y-136612729D01*
X134214779Y-136397117D01*
X134214779Y-136397116D01*
X134179137Y-136327166D01*
X134111855Y-136195118D01*
X134039080Y-136094951D01*
X133978605Y-136011713D01*
X133978601Y-136011708D01*
X133818291Y-135851398D01*
X133818286Y-135851394D01*
X133720030Y-135780007D01*
X133677364Y-135724677D01*
X133671385Y-135655064D01*
X133703991Y-135593269D01*
X133705841Y-135591665D01*
X133706006Y-135589559D01*
X133015942Y-134899495D01*
X133076081Y-134883381D01*
X133191920Y-134816502D01*
X133286502Y-134721920D01*
X133353381Y-134606081D01*
X133369494Y-134545942D01*
X134059559Y-135236007D01*
X134059559Y-135236006D01*
X134111426Y-135164620D01*
X134214316Y-134962688D01*
X134284346Y-134747158D01*
X134284346Y-134747155D01*
X134319800Y-134523314D01*
X134319800Y-134296685D01*
X134284346Y-134072844D01*
X134284346Y-134072841D01*
X134214316Y-133857311D01*
X134111426Y-133655379D01*
X134059559Y-133583992D01*
X134059559Y-133583991D01*
X133369494Y-134274056D01*
X133353381Y-134213919D01*
X133286502Y-134098080D01*
X133191920Y-134003498D01*
X133076081Y-133936619D01*
X133015940Y-133920504D01*
X133706007Y-133230439D01*
X133705306Y-133221533D01*
X133677364Y-133185297D01*
X133671385Y-133115683D01*
X133703991Y-133053888D01*
X133720023Y-133039996D01*
X133818293Y-132968600D01*
X133978600Y-132808293D01*
X134111855Y-132624882D01*
X134214779Y-132422883D01*
X134284835Y-132207271D01*
X134320300Y-131983354D01*
X134320300Y-131756646D01*
X134284835Y-131532729D01*
X134214779Y-131317117D01*
X134214779Y-131317116D01*
X134179137Y-131247166D01*
X134111855Y-131115118D01*
X134060179Y-131043991D01*
X133978605Y-130931713D01*
X133978601Y-130931708D01*
X133818293Y-130771400D01*
X133818285Y-130771394D01*
X133720456Y-130700317D01*
X133705553Y-130680992D01*
X133687491Y-130664588D01*
X133684600Y-130653819D01*
X133677791Y-130644989D01*
X133675702Y-130620675D01*
X133669376Y-130597108D01*
X133672766Y-130586485D01*
X133671812Y-130575376D01*
X133683199Y-130553792D01*
X133690619Y-130530546D01*
X133701288Y-130519509D01*
X133704417Y-130513580D01*
X133714347Y-130504419D01*
X133717332Y-130501951D01*
X133818293Y-130428600D01*
X133978600Y-130268293D01*
X134111855Y-130084882D01*
X134214779Y-129882883D01*
X134284835Y-129667271D01*
X134320300Y-129443354D01*
X134320300Y-129216646D01*
X134284835Y-128992729D01*
X134214779Y-128777117D01*
X134214779Y-128777116D01*
X134179137Y-128707166D01*
X134111855Y-128575118D01*
X134060179Y-128503991D01*
X133978605Y-128391713D01*
X133978601Y-128391708D01*
X133818293Y-128231400D01*
X133767965Y-128194835D01*
X133720456Y-128160317D01*
X133677791Y-128104989D01*
X133671812Y-128035376D01*
X133704417Y-127973580D01*
X133720456Y-127959682D01*
X133818293Y-127888600D01*
X133978600Y-127728293D01*
X134111855Y-127544882D01*
X134214779Y-127342883D01*
X134284835Y-127127271D01*
X134320300Y-126903354D01*
X134320300Y-126676646D01*
X134284835Y-126452729D01*
X134214779Y-126237117D01*
X134214779Y-126237116D01*
X134179137Y-126167166D01*
X134111855Y-126035118D01*
X134094829Y-126011684D01*
X133978605Y-125851713D01*
X133978601Y-125851708D01*
X133818293Y-125691400D01*
X133818285Y-125691394D01*
X133720456Y-125620317D01*
X133677791Y-125564989D01*
X133671812Y-125495376D01*
X133704417Y-125433580D01*
X133720456Y-125419682D01*
X133818293Y-125348600D01*
X133978600Y-125188293D01*
X134111855Y-125004882D01*
X134214779Y-124802883D01*
X134284835Y-124587271D01*
X134320300Y-124363354D01*
X134320300Y-124136646D01*
X134284835Y-123912729D01*
X134214779Y-123697117D01*
X134214779Y-123697116D01*
X134179137Y-123627166D01*
X134111855Y-123495118D01*
X134094829Y-123471684D01*
X133978605Y-123311713D01*
X133978601Y-123311708D01*
X133818293Y-123151400D01*
X133818285Y-123151394D01*
X133720456Y-123080317D01*
X133677791Y-123024989D01*
X133671812Y-122955376D01*
X133704417Y-122893580D01*
X133720456Y-122879682D01*
X133818293Y-122808600D01*
X133978600Y-122648293D01*
X134111855Y-122464882D01*
X134214779Y-122262883D01*
X134284835Y-122047271D01*
X134320300Y-121823354D01*
X134320300Y-121596646D01*
X134284835Y-121372729D01*
X134214779Y-121157117D01*
X134214779Y-121157116D01*
X134179137Y-121087166D01*
X134111855Y-120955118D01*
X134094829Y-120931684D01*
X133978605Y-120771713D01*
X133978601Y-120771708D01*
X133818293Y-120611400D01*
X133818285Y-120611394D01*
X133720456Y-120540317D01*
X133677791Y-120484989D01*
X133671812Y-120415376D01*
X133704417Y-120353580D01*
X133720456Y-120339682D01*
X133818293Y-120268600D01*
X133978600Y-120108293D01*
X134111855Y-119924882D01*
X134214779Y-119722883D01*
X134284835Y-119507271D01*
X134320300Y-119283354D01*
X134320300Y-119056646D01*
X134284835Y-118832729D01*
X134214779Y-118617117D01*
X134214779Y-118617116D01*
X134179137Y-118547166D01*
X134111855Y-118415118D01*
X134094829Y-118391684D01*
X133978605Y-118231713D01*
X133978601Y-118231708D01*
X133818293Y-118071400D01*
X133818285Y-118071394D01*
X133720456Y-118000317D01*
X133677791Y-117944989D01*
X133671812Y-117875376D01*
X133704417Y-117813580D01*
X133720456Y-117799682D01*
X133818293Y-117728600D01*
X133978600Y-117568293D01*
X134111855Y-117384882D01*
X134214779Y-117182883D01*
X134284835Y-116967271D01*
X134320300Y-116743354D01*
X134320300Y-116516646D01*
X134284835Y-116292729D01*
X134214779Y-116077117D01*
X134214779Y-116077116D01*
X134179137Y-116007166D01*
X134111855Y-115875118D01*
X134094829Y-115851684D01*
X133978605Y-115691713D01*
X133978601Y-115691708D01*
X133818293Y-115531400D01*
X133818285Y-115531394D01*
X133720456Y-115460317D01*
X133677791Y-115404989D01*
X133671812Y-115335376D01*
X133704417Y-115273580D01*
X133720456Y-115259682D01*
X133818293Y-115188600D01*
X133978600Y-115028293D01*
X134111855Y-114844882D01*
X134214779Y-114642883D01*
X134284835Y-114427271D01*
X134320300Y-114203354D01*
X134320300Y-113976646D01*
X134284835Y-113752729D01*
X134214779Y-113537117D01*
X134214779Y-113537116D01*
X134179137Y-113467166D01*
X134111855Y-113335118D01*
X134094829Y-113311684D01*
X133978605Y-113151713D01*
X133978601Y-113151708D01*
X133818293Y-112991400D01*
X133818285Y-112991394D01*
X133720456Y-112920317D01*
X133677791Y-112864989D01*
X133671812Y-112795376D01*
X133704417Y-112733580D01*
X133720456Y-112719682D01*
X133818293Y-112648600D01*
X133978600Y-112488293D01*
X134111855Y-112304882D01*
X134214779Y-112102883D01*
X134284835Y-111887271D01*
X134320300Y-111663354D01*
X134320300Y-111436646D01*
X134284835Y-111212729D01*
X134214779Y-110997117D01*
X134214779Y-110997116D01*
X134175351Y-110919735D01*
X134111855Y-110795118D01*
X134013896Y-110660288D01*
X133978605Y-110611713D01*
X133978601Y-110611708D01*
X133818293Y-110451400D01*
X133724837Y-110383501D01*
X133720456Y-110380317D01*
X133677791Y-110324989D01*
X133671812Y-110255376D01*
X133704417Y-110193580D01*
X133720456Y-110179682D01*
X133818293Y-110108600D01*
X133978600Y-109948293D01*
X134111855Y-109764882D01*
X134214779Y-109562883D01*
X134284835Y-109347271D01*
X134320300Y-109123354D01*
X134320300Y-108896646D01*
X146679700Y-108896646D01*
X146679700Y-109123353D01*
X146715165Y-109347272D01*
X146785219Y-109562880D01*
X146785220Y-109562883D01*
X146888147Y-109764885D01*
X147021394Y-109948286D01*
X147021398Y-109948291D01*
X147181708Y-110108601D01*
X147181713Y-110108605D01*
X147279542Y-110179682D01*
X147322208Y-110235012D01*
X147328187Y-110304625D01*
X147295582Y-110366420D01*
X147279542Y-110380318D01*
X147181713Y-110451394D01*
X147181708Y-110451398D01*
X147021398Y-110611708D01*
X147021394Y-110611713D01*
X146888147Y-110795114D01*
X146785220Y-110997116D01*
X146785219Y-110997119D01*
X146715165Y-111212727D01*
X146679700Y-111436646D01*
X146679700Y-111663353D01*
X146715165Y-111887272D01*
X146785219Y-112102880D01*
X146785220Y-112102883D01*
X146888147Y-112304885D01*
X147021394Y-112488286D01*
X147021398Y-112488291D01*
X147181708Y-112648601D01*
X147181713Y-112648605D01*
X147279542Y-112719682D01*
X147322208Y-112775012D01*
X147328187Y-112844625D01*
X147295582Y-112906420D01*
X147279542Y-112920318D01*
X147181713Y-112991394D01*
X147181708Y-112991398D01*
X147021398Y-113151708D01*
X147021394Y-113151713D01*
X146888147Y-113335114D01*
X146785220Y-113537116D01*
X146785219Y-113537119D01*
X146715165Y-113752727D01*
X146679700Y-113976646D01*
X146679700Y-114203353D01*
X146715165Y-114427272D01*
X146785219Y-114642880D01*
X146785220Y-114642883D01*
X146888147Y-114844885D01*
X147021394Y-115028286D01*
X147021398Y-115028291D01*
X147181708Y-115188601D01*
X147181713Y-115188605D01*
X147279542Y-115259682D01*
X147322208Y-115315012D01*
X147328187Y-115384625D01*
X147295582Y-115446420D01*
X147279542Y-115460318D01*
X147181713Y-115531394D01*
X147181708Y-115531398D01*
X147021398Y-115691708D01*
X147021394Y-115691713D01*
X146888147Y-115875114D01*
X146785220Y-116077116D01*
X146785219Y-116077119D01*
X146715165Y-116292727D01*
X146679700Y-116516646D01*
X146679700Y-116743353D01*
X146715165Y-116967272D01*
X146785219Y-117182880D01*
X146785220Y-117182883D01*
X146888147Y-117384885D01*
X147021394Y-117568286D01*
X147021398Y-117568291D01*
X147181708Y-117728601D01*
X147181713Y-117728605D01*
X147279542Y-117799682D01*
X147322208Y-117855012D01*
X147328187Y-117924625D01*
X147295582Y-117986420D01*
X147279542Y-118000318D01*
X147181713Y-118071394D01*
X147181708Y-118071398D01*
X147021398Y-118231708D01*
X147021394Y-118231713D01*
X146888147Y-118415114D01*
X146785220Y-118617116D01*
X146785219Y-118617119D01*
X146715165Y-118832727D01*
X146679700Y-119056646D01*
X146679700Y-119283353D01*
X146715165Y-119507272D01*
X146785219Y-119722880D01*
X146785220Y-119722883D01*
X146888147Y-119924885D01*
X147021394Y-120108286D01*
X147021398Y-120108291D01*
X147181708Y-120268601D01*
X147181713Y-120268605D01*
X147279542Y-120339682D01*
X147322208Y-120395012D01*
X147328187Y-120464625D01*
X147295582Y-120526420D01*
X147279542Y-120540318D01*
X147181713Y-120611394D01*
X147181708Y-120611398D01*
X147021398Y-120771708D01*
X147021394Y-120771713D01*
X146888147Y-120955114D01*
X146785220Y-121157116D01*
X146785219Y-121157119D01*
X146715165Y-121372727D01*
X146679700Y-121596646D01*
X146679700Y-121823353D01*
X146715165Y-122047272D01*
X146785219Y-122262880D01*
X146785220Y-122262883D01*
X146888147Y-122464885D01*
X147021394Y-122648286D01*
X147021398Y-122648291D01*
X147181708Y-122808601D01*
X147181713Y-122808605D01*
X147279542Y-122879682D01*
X147322208Y-122935012D01*
X147328187Y-123004625D01*
X147295582Y-123066420D01*
X147279542Y-123080318D01*
X147181713Y-123151394D01*
X147181708Y-123151398D01*
X147021398Y-123311708D01*
X147021394Y-123311713D01*
X146888147Y-123495114D01*
X146785220Y-123697116D01*
X146785219Y-123697119D01*
X146715165Y-123912727D01*
X146679700Y-124136646D01*
X146679700Y-124363353D01*
X146715165Y-124587272D01*
X146785219Y-124802880D01*
X146785220Y-124802883D01*
X146888147Y-125004885D01*
X147021394Y-125188286D01*
X147021398Y-125188291D01*
X147181708Y-125348601D01*
X147181713Y-125348605D01*
X147279542Y-125419682D01*
X147322208Y-125475012D01*
X147328187Y-125544625D01*
X147295582Y-125606420D01*
X147279542Y-125620318D01*
X147181713Y-125691394D01*
X147181708Y-125691398D01*
X147021398Y-125851708D01*
X147021394Y-125851713D01*
X146888147Y-126035114D01*
X146785220Y-126237116D01*
X146785219Y-126237119D01*
X146715165Y-126452727D01*
X146679700Y-126676646D01*
X146679700Y-126903353D01*
X146715165Y-127127272D01*
X146785219Y-127342880D01*
X146785220Y-127342883D01*
X146888147Y-127544885D01*
X147021394Y-127728286D01*
X147021398Y-127728291D01*
X147181708Y-127888601D01*
X147181713Y-127888605D01*
X147279967Y-127959991D01*
X147322633Y-128015321D01*
X147328612Y-128084934D01*
X147296006Y-128146729D01*
X147294157Y-128148330D01*
X147293991Y-128150439D01*
X147984057Y-128840504D01*
X147923919Y-128856619D01*
X147808080Y-128923498D01*
X147713498Y-129018080D01*
X147646619Y-129133919D01*
X147630504Y-129194057D01*
X146940439Y-128503991D01*
X146940438Y-128503992D01*
X146888575Y-128575376D01*
X146785683Y-128777311D01*
X146715653Y-128992841D01*
X146715653Y-128992844D01*
X146680200Y-129216685D01*
X146680200Y-129443314D01*
X146715653Y-129667155D01*
X146715653Y-129667158D01*
X146785683Y-129882688D01*
X146888573Y-130084620D01*
X146940439Y-130156006D01*
X146940439Y-130156007D01*
X147630504Y-129465941D01*
X147646619Y-129526081D01*
X147713498Y-129641920D01*
X147808080Y-129736502D01*
X147923919Y-129803381D01*
X147984057Y-129819494D01*
X147293991Y-130509559D01*
X147294671Y-130518196D01*
X147323060Y-130555012D01*
X147329039Y-130624625D01*
X147296433Y-130686420D01*
X147294152Y-130688395D01*
X147293991Y-130690439D01*
X147984057Y-131380504D01*
X147923919Y-131396619D01*
X147808080Y-131463498D01*
X147713498Y-131558080D01*
X147646619Y-131673919D01*
X147630504Y-131734057D01*
X146940439Y-131043991D01*
X146940438Y-131043992D01*
X146888575Y-131115376D01*
X146785683Y-131317311D01*
X146715653Y-131532841D01*
X146715653Y-131532844D01*
X146680200Y-131756685D01*
X146680200Y-131983314D01*
X146715653Y-132207155D01*
X146715653Y-132207158D01*
X146785683Y-132422688D01*
X146888573Y-132624620D01*
X146940439Y-132696006D01*
X146940439Y-132696007D01*
X147630504Y-132005941D01*
X147646619Y-132066081D01*
X147713498Y-132181920D01*
X147808080Y-132276502D01*
X147923919Y-132343381D01*
X147984057Y-132359494D01*
X147293991Y-133049559D01*
X147294692Y-133058465D01*
X147322634Y-133094699D01*
X147328615Y-133164312D01*
X147296010Y-133226108D01*
X147279970Y-133240007D01*
X147181708Y-133311398D01*
X147021398Y-133471708D01*
X147021394Y-133471713D01*
X146888147Y-133655114D01*
X146785220Y-133857116D01*
X146785219Y-133857119D01*
X146715165Y-134072727D01*
X146679700Y-134296646D01*
X146679700Y-134523353D01*
X146715165Y-134747272D01*
X146785219Y-134962880D01*
X146785220Y-134962883D01*
X146888147Y-135164885D01*
X147021394Y-135348286D01*
X147021398Y-135348291D01*
X147181708Y-135508601D01*
X147181713Y-135508605D01*
X147279542Y-135579682D01*
X147322208Y-135635012D01*
X147328187Y-135704625D01*
X147295582Y-135766420D01*
X147279542Y-135780318D01*
X147181713Y-135851394D01*
X147181708Y-135851398D01*
X147021398Y-136011708D01*
X147021394Y-136011713D01*
X146888147Y-136195114D01*
X146785220Y-136397116D01*
X146785219Y-136397119D01*
X146715165Y-136612727D01*
X146679700Y-136836646D01*
X146679700Y-137063353D01*
X146715165Y-137287272D01*
X146785219Y-137502880D01*
X146785220Y-137502883D01*
X146888147Y-137704885D01*
X147021394Y-137888286D01*
X147021398Y-137888291D01*
X147181708Y-138048601D01*
X147181713Y-138048605D01*
X147293459Y-138129792D01*
X147365118Y-138181855D01*
X147497166Y-138249137D01*
X147567116Y-138284779D01*
X147567119Y-138284780D01*
X147674923Y-138319807D01*
X147782729Y-138354835D01*
X148006646Y-138390300D01*
X148006647Y-138390300D01*
X148233353Y-138390300D01*
X148233354Y-138390300D01*
X148457271Y-138354835D01*
X148672883Y-138284779D01*
X148874882Y-138181855D01*
X149058293Y-138048600D01*
X149218600Y-137888293D01*
X149351855Y-137704882D01*
X149454779Y-137502883D01*
X149524835Y-137287271D01*
X149560300Y-137063354D01*
X149560300Y-136836646D01*
X149524835Y-136612729D01*
X149454779Y-136397117D01*
X149454779Y-136397116D01*
X149419137Y-136327166D01*
X149351855Y-136195118D01*
X149279080Y-136094951D01*
X149218605Y-136011713D01*
X149218601Y-136011708D01*
X149058293Y-135851400D01*
X149058285Y-135851394D01*
X148960456Y-135780317D01*
X148917791Y-135724989D01*
X148911812Y-135655376D01*
X148944417Y-135593580D01*
X148960456Y-135579682D01*
X149058293Y-135508600D01*
X149218600Y-135348293D01*
X149351855Y-135164882D01*
X149454779Y-134962883D01*
X149524835Y-134747271D01*
X149560300Y-134523354D01*
X149560300Y-134296646D01*
X149524835Y-134072729D01*
X149454779Y-133857117D01*
X149454779Y-133857116D01*
X149419137Y-133787166D01*
X149351855Y-133655118D01*
X149300179Y-133583991D01*
X149218605Y-133471713D01*
X149218601Y-133471708D01*
X149058291Y-133311398D01*
X149058286Y-133311394D01*
X148960030Y-133240007D01*
X148917364Y-133184677D01*
X148911385Y-133115064D01*
X148943991Y-133053269D01*
X148945841Y-133051665D01*
X148946006Y-133049559D01*
X148255942Y-132359495D01*
X148316081Y-132343381D01*
X148431920Y-132276502D01*
X148526502Y-132181920D01*
X148593381Y-132066081D01*
X148609495Y-132005942D01*
X149299559Y-132696006D01*
X149351426Y-132624620D01*
X149454316Y-132422688D01*
X149524346Y-132207158D01*
X149524346Y-132207155D01*
X149559800Y-131983314D01*
X149559800Y-131756685D01*
X149524346Y-131532844D01*
X149524346Y-131532841D01*
X149454316Y-131317311D01*
X149351426Y-131115379D01*
X149299559Y-131043992D01*
X149299559Y-131043991D01*
X148609494Y-131734056D01*
X148593381Y-131673919D01*
X148526502Y-131558080D01*
X148431920Y-131463498D01*
X148316081Y-131396619D01*
X148255940Y-131380504D01*
X148946007Y-130690439D01*
X148945327Y-130681804D01*
X148916937Y-130644987D01*
X148910958Y-130575374D01*
X148943564Y-130513579D01*
X148945846Y-130511601D01*
X148946006Y-130509559D01*
X148255942Y-129819495D01*
X148316081Y-129803381D01*
X148431920Y-129736502D01*
X148526502Y-129641920D01*
X148593381Y-129526081D01*
X148609495Y-129465942D01*
X149299559Y-130156006D01*
X149351426Y-130084620D01*
X149454316Y-129882688D01*
X149524346Y-129667158D01*
X149524346Y-129667155D01*
X149559800Y-129443314D01*
X149559800Y-129216685D01*
X149524346Y-128992844D01*
X149524346Y-128992841D01*
X149454316Y-128777311D01*
X149351426Y-128575379D01*
X149299559Y-128503992D01*
X149299559Y-128503991D01*
X148609494Y-129194056D01*
X148593381Y-129133919D01*
X148526502Y-129018080D01*
X148431920Y-128923498D01*
X148316081Y-128856619D01*
X148255940Y-128840504D01*
X148946007Y-128150439D01*
X148945306Y-128141533D01*
X148917364Y-128105297D01*
X148911385Y-128035683D01*
X148943991Y-127973888D01*
X148960023Y-127959996D01*
X149058293Y-127888600D01*
X149218600Y-127728293D01*
X149351855Y-127544882D01*
X149454779Y-127342883D01*
X149524835Y-127127271D01*
X149560300Y-126903354D01*
X149560300Y-126676646D01*
X149524835Y-126452729D01*
X149454779Y-126237117D01*
X149454779Y-126237116D01*
X149419137Y-126167166D01*
X149351855Y-126035118D01*
X149334829Y-126011684D01*
X149218605Y-125851713D01*
X149218601Y-125851708D01*
X149058293Y-125691400D01*
X149058285Y-125691394D01*
X148960456Y-125620317D01*
X148917791Y-125564989D01*
X148911812Y-125495376D01*
X148944417Y-125433580D01*
X148960456Y-125419682D01*
X149058293Y-125348600D01*
X149218600Y-125188293D01*
X149351855Y-125004882D01*
X149454779Y-124802883D01*
X149524835Y-124587271D01*
X149560300Y-124363354D01*
X149560300Y-124136646D01*
X149524835Y-123912729D01*
X149454779Y-123697117D01*
X149454779Y-123697116D01*
X149419137Y-123627166D01*
X149351855Y-123495118D01*
X149334829Y-123471684D01*
X149218605Y-123311713D01*
X149218601Y-123311708D01*
X149058293Y-123151400D01*
X149058285Y-123151394D01*
X148960456Y-123080317D01*
X148917791Y-123024989D01*
X148911812Y-122955376D01*
X148944417Y-122893580D01*
X148960456Y-122879682D01*
X149058293Y-122808600D01*
X149218600Y-122648293D01*
X149351855Y-122464882D01*
X149454779Y-122262883D01*
X149524835Y-122047271D01*
X149560300Y-121823354D01*
X149560300Y-121596646D01*
X149524835Y-121372729D01*
X149454779Y-121157117D01*
X149454779Y-121157116D01*
X149419137Y-121087166D01*
X149351855Y-120955118D01*
X149334829Y-120931684D01*
X149218605Y-120771713D01*
X149218601Y-120771708D01*
X149058293Y-120611400D01*
X149058285Y-120611394D01*
X148960456Y-120540317D01*
X148917791Y-120484989D01*
X148911812Y-120415376D01*
X148944417Y-120353580D01*
X148960456Y-120339682D01*
X149058293Y-120268600D01*
X149218600Y-120108293D01*
X149351855Y-119924882D01*
X149454779Y-119722883D01*
X149524835Y-119507271D01*
X149560300Y-119283354D01*
X149560300Y-119056646D01*
X149524835Y-118832729D01*
X149454779Y-118617117D01*
X149454779Y-118617116D01*
X149419137Y-118547166D01*
X149351855Y-118415118D01*
X149334829Y-118391684D01*
X149218605Y-118231713D01*
X149218601Y-118231708D01*
X149058293Y-118071400D01*
X149058285Y-118071394D01*
X148960456Y-118000317D01*
X148917791Y-117944989D01*
X148911812Y-117875376D01*
X148944417Y-117813580D01*
X148960456Y-117799682D01*
X149058293Y-117728600D01*
X149218600Y-117568293D01*
X149351855Y-117384882D01*
X149454779Y-117182883D01*
X149524835Y-116967271D01*
X149560300Y-116743354D01*
X149560300Y-116516646D01*
X149524835Y-116292729D01*
X149454779Y-116077117D01*
X149454779Y-116077116D01*
X149419137Y-116007166D01*
X149351855Y-115875118D01*
X149334829Y-115851684D01*
X149218605Y-115691713D01*
X149218601Y-115691708D01*
X149058293Y-115531400D01*
X149058285Y-115531394D01*
X148960456Y-115460317D01*
X148917791Y-115404989D01*
X148911812Y-115335376D01*
X148944417Y-115273580D01*
X148960456Y-115259682D01*
X149058293Y-115188600D01*
X149218600Y-115028293D01*
X149351855Y-114844882D01*
X149454779Y-114642883D01*
X149524835Y-114427271D01*
X149560300Y-114203354D01*
X149560300Y-113976646D01*
X149524835Y-113752729D01*
X149454779Y-113537117D01*
X149454779Y-113537116D01*
X149419137Y-113467166D01*
X149351855Y-113335118D01*
X149334829Y-113311684D01*
X149218605Y-113151713D01*
X149218601Y-113151708D01*
X149058293Y-112991400D01*
X149058285Y-112991394D01*
X148960456Y-112920317D01*
X148917791Y-112864989D01*
X148911812Y-112795376D01*
X148944417Y-112733580D01*
X148960456Y-112719682D01*
X149058293Y-112648600D01*
X149218600Y-112488293D01*
X149351855Y-112304882D01*
X149454779Y-112102883D01*
X149524835Y-111887271D01*
X149560300Y-111663354D01*
X149560300Y-111436646D01*
X149524835Y-111212729D01*
X149454779Y-110997117D01*
X149454779Y-110997116D01*
X149415351Y-110919735D01*
X149351855Y-110795118D01*
X149253896Y-110660288D01*
X149218605Y-110611713D01*
X149218601Y-110611708D01*
X149058293Y-110451400D01*
X148964837Y-110383501D01*
X148960456Y-110380317D01*
X148917791Y-110324989D01*
X148911812Y-110255376D01*
X148944417Y-110193580D01*
X148960456Y-110179682D01*
X149058293Y-110108600D01*
X149218600Y-109948293D01*
X149351855Y-109764882D01*
X149454779Y-109562883D01*
X149524835Y-109347271D01*
X149560300Y-109123354D01*
X149560300Y-108896646D01*
X149524835Y-108672729D01*
X149454779Y-108457117D01*
X149454779Y-108457116D01*
X149406684Y-108362726D01*
X149351855Y-108255118D01*
X149227166Y-108083497D01*
X149218605Y-108071713D01*
X149218601Y-108071708D01*
X149058291Y-107911398D01*
X149058286Y-107911394D01*
X148874885Y-107778147D01*
X148874884Y-107778146D01*
X148874882Y-107778145D01*
X148810166Y-107745170D01*
X148672883Y-107675220D01*
X148672880Y-107675219D01*
X148457272Y-107605165D01*
X148345312Y-107587432D01*
X148233354Y-107569700D01*
X148006646Y-107569700D01*
X147932007Y-107581521D01*
X147782727Y-107605165D01*
X147567119Y-107675219D01*
X147567116Y-107675220D01*
X147365114Y-107778147D01*
X147181713Y-107911394D01*
X147181708Y-107911398D01*
X147021398Y-108071708D01*
X147021394Y-108071713D01*
X146888147Y-108255114D01*
X146785220Y-108457116D01*
X146785219Y-108457119D01*
X146715165Y-108672727D01*
X146679700Y-108896646D01*
X134320300Y-108896646D01*
X134284835Y-108672729D01*
X134214779Y-108457117D01*
X134214779Y-108457116D01*
X134166684Y-108362726D01*
X134111855Y-108255118D01*
X133987166Y-108083497D01*
X133978605Y-108071713D01*
X133978601Y-108071708D01*
X133818291Y-107911398D01*
X133818286Y-107911394D01*
X133634885Y-107778147D01*
X133634884Y-107778146D01*
X133634882Y-107778145D01*
X133570166Y-107745170D01*
X133432883Y-107675220D01*
X133432880Y-107675219D01*
X133217272Y-107605165D01*
X133105312Y-107587432D01*
X132993354Y-107569700D01*
X132766646Y-107569700D01*
X132692007Y-107581521D01*
X132542727Y-107605165D01*
X132327119Y-107675219D01*
X132327116Y-107675220D01*
X132125114Y-107778147D01*
X131941713Y-107911394D01*
X131941708Y-107911398D01*
X131781398Y-108071708D01*
X131781394Y-108071713D01*
X131648147Y-108255114D01*
X131545220Y-108457116D01*
X131545219Y-108457119D01*
X131475165Y-108672727D01*
X131439700Y-108896646D01*
X128500500Y-108896646D01*
X128500500Y-108429765D01*
X128520185Y-108362726D01*
X128521398Y-108360874D01*
X128609390Y-108229185D01*
X128609390Y-108229184D01*
X128609394Y-108229179D01*
X128669737Y-108083497D01*
X128700500Y-107928842D01*
X128700500Y-107771158D01*
X128700500Y-107771155D01*
X128700499Y-107771153D01*
X128681417Y-107675221D01*
X128669737Y-107616503D01*
X128650351Y-107569700D01*
X128609397Y-107470827D01*
X128609390Y-107470814D01*
X128521789Y-107339711D01*
X128521786Y-107339707D01*
X128410292Y-107228213D01*
X128410288Y-107228210D01*
X128279185Y-107140609D01*
X128279172Y-107140602D01*
X128133501Y-107080264D01*
X128133489Y-107080261D01*
X127978845Y-107049500D01*
X127978842Y-107049500D01*
X127821158Y-107049500D01*
X127821155Y-107049500D01*
X127666510Y-107080261D01*
X127666498Y-107080264D01*
X127520827Y-107140602D01*
X127520814Y-107140609D01*
X127389711Y-107228210D01*
X127389707Y-107228213D01*
X127278213Y-107339707D01*
X127278210Y-107339711D01*
X127190609Y-107470814D01*
X127190602Y-107470827D01*
X127130264Y-107616498D01*
X127130261Y-107616510D01*
X127099500Y-107771153D01*
X110750500Y-107771153D01*
X110750500Y-94071153D01*
X126799500Y-94071153D01*
X126799500Y-94228846D01*
X126830261Y-94383489D01*
X126830264Y-94383501D01*
X126890602Y-94529172D01*
X126890609Y-94529185D01*
X126978210Y-94660288D01*
X126978213Y-94660292D01*
X127089707Y-94771786D01*
X127089711Y-94771789D01*
X127220814Y-94859390D01*
X127220827Y-94859397D01*
X127366498Y-94919735D01*
X127366503Y-94919737D01*
X127431147Y-94932595D01*
X127521849Y-94950638D01*
X127583760Y-94983023D01*
X127585339Y-94984574D01*
X128063181Y-95462416D01*
X128096666Y-95523739D01*
X128099500Y-95550097D01*
X128099500Y-96170234D01*
X128079815Y-96237273D01*
X128078602Y-96239125D01*
X127990609Y-96370814D01*
X127990602Y-96370827D01*
X127930264Y-96516498D01*
X127930261Y-96516510D01*
X127899500Y-96671153D01*
X127899500Y-96828846D01*
X127930261Y-96983489D01*
X127930264Y-96983501D01*
X127990602Y-97129172D01*
X127990609Y-97129185D01*
X128078210Y-97260288D01*
X128078213Y-97260292D01*
X128189707Y-97371786D01*
X128189711Y-97371789D01*
X128320814Y-97459390D01*
X128320827Y-97459397D01*
X128466498Y-97519735D01*
X128466503Y-97519737D01*
X128621153Y-97550499D01*
X128621156Y-97550500D01*
X128621158Y-97550500D01*
X128778844Y-97550500D01*
X128778845Y-97550499D01*
X128933497Y-97519737D01*
X129079179Y-97459394D01*
X129210289Y-97371789D01*
X129321789Y-97260289D01*
X129409394Y-97129179D01*
X129468756Y-96985864D01*
X129512596Y-96931461D01*
X129535865Y-96918756D01*
X129550829Y-96912558D01*
X129679179Y-96859394D01*
X129810289Y-96771789D01*
X129921789Y-96660289D01*
X130009394Y-96529179D01*
X130069737Y-96383497D01*
X130100500Y-96228842D01*
X130100500Y-96071158D01*
X130100500Y-96071155D01*
X130100499Y-96071153D01*
X130098551Y-96061358D01*
X130069737Y-95916503D01*
X130060621Y-95894494D01*
X130009397Y-95770827D01*
X130009390Y-95770814D01*
X129921398Y-95639125D01*
X129900520Y-95572447D01*
X129900500Y-95570234D01*
X129900500Y-94129765D01*
X129920185Y-94062726D01*
X129921398Y-94060874D01*
X130009390Y-93929185D01*
X130009390Y-93929184D01*
X130009394Y-93929179D01*
X130069737Y-93783497D01*
X130100500Y-93628842D01*
X130100500Y-93471158D01*
X130100500Y-93471155D01*
X130100499Y-93471153D01*
X130094422Y-93440602D01*
X130069737Y-93316503D01*
X130052320Y-93274454D01*
X130009397Y-93170827D01*
X130009390Y-93170814D01*
X129921789Y-93039711D01*
X129921786Y-93039707D01*
X129810292Y-92928213D01*
X129810288Y-92928210D01*
X129679185Y-92840609D01*
X129679172Y-92840602D01*
X129533501Y-92780264D01*
X129533489Y-92780261D01*
X129378845Y-92749500D01*
X129378842Y-92749500D01*
X129221158Y-92749500D01*
X129221155Y-92749500D01*
X129066510Y-92780261D01*
X129066498Y-92780264D01*
X128920827Y-92840602D01*
X128920814Y-92840609D01*
X128789711Y-92928210D01*
X128789707Y-92928213D01*
X128678213Y-93039707D01*
X128678210Y-93039711D01*
X128590609Y-93170814D01*
X128590602Y-93170827D01*
X128530264Y-93316498D01*
X128530261Y-93316510D01*
X128499500Y-93471153D01*
X128499500Y-93628844D01*
X128500097Y-93634907D01*
X128497742Y-93635138D01*
X128492449Y-93694295D01*
X128449586Y-93749472D01*
X128383696Y-93772716D01*
X128315699Y-93756648D01*
X128273957Y-93717785D01*
X128221789Y-93639711D01*
X128221786Y-93639707D01*
X128110292Y-93528213D01*
X128110288Y-93528210D01*
X127979185Y-93440609D01*
X127979172Y-93440602D01*
X127833501Y-93380264D01*
X127833489Y-93380261D01*
X127678845Y-93349500D01*
X127678842Y-93349500D01*
X127521158Y-93349500D01*
X127521155Y-93349500D01*
X127366510Y-93380261D01*
X127366498Y-93380264D01*
X127220827Y-93440602D01*
X127220814Y-93440609D01*
X127089711Y-93528210D01*
X127089707Y-93528213D01*
X126978213Y-93639707D01*
X126978210Y-93639711D01*
X126890609Y-93770814D01*
X126890602Y-93770827D01*
X126830264Y-93916498D01*
X126830261Y-93916510D01*
X126799500Y-94071153D01*
X110750500Y-94071153D01*
X110750500Y-83484448D01*
X133999500Y-83484448D01*
X133999500Y-83665551D01*
X134027829Y-83844410D01*
X134083787Y-84016636D01*
X134083788Y-84016639D01*
X134166006Y-84177997D01*
X134272441Y-84324494D01*
X134272445Y-84324499D01*
X134325265Y-84377320D01*
X134358749Y-84438643D01*
X134353764Y-84508335D01*
X134325265Y-84552680D01*
X134272445Y-84605500D01*
X134272441Y-84605505D01*
X134166006Y-84752002D01*
X134083788Y-84913360D01*
X134083787Y-84913363D01*
X134027829Y-85085589D01*
X133999500Y-85264448D01*
X133999500Y-85445551D01*
X134027829Y-85624410D01*
X134083787Y-85796636D01*
X134083788Y-85796639D01*
X134166006Y-85957997D01*
X134272441Y-86104494D01*
X134272445Y-86104499D01*
X134325265Y-86157320D01*
X134358749Y-86218643D01*
X134353764Y-86288335D01*
X134325265Y-86332680D01*
X134272445Y-86385500D01*
X134272441Y-86385505D01*
X134166006Y-86532002D01*
X134083788Y-86693360D01*
X134083787Y-86693363D01*
X134027829Y-86865589D01*
X133999500Y-87044448D01*
X133999500Y-87225551D01*
X134027829Y-87404410D01*
X134083787Y-87576636D01*
X134083788Y-87576639D01*
X134166006Y-87737997D01*
X134272441Y-87884494D01*
X134272445Y-87884499D01*
X134325265Y-87937320D01*
X134358749Y-87998643D01*
X134353764Y-88068335D01*
X134325265Y-88112680D01*
X134272445Y-88165500D01*
X134272441Y-88165505D01*
X134166006Y-88312002D01*
X134083788Y-88473360D01*
X134083787Y-88473363D01*
X134027829Y-88645589D01*
X133999500Y-88824448D01*
X133999500Y-89005551D01*
X134027829Y-89184410D01*
X134083787Y-89356636D01*
X134083788Y-89356639D01*
X134166006Y-89517997D01*
X134272441Y-89664494D01*
X134272445Y-89664499D01*
X134325265Y-89717320D01*
X134358749Y-89778643D01*
X134353764Y-89848335D01*
X134325265Y-89892680D01*
X134272445Y-89945500D01*
X134272441Y-89945505D01*
X134166006Y-90092002D01*
X134083788Y-90253360D01*
X134083787Y-90253363D01*
X134027829Y-90425589D01*
X133999500Y-90604448D01*
X133999500Y-90785551D01*
X134027829Y-90964410D01*
X134083787Y-91136636D01*
X134083788Y-91136639D01*
X134166006Y-91297997D01*
X134272441Y-91444494D01*
X134272445Y-91444499D01*
X134325265Y-91497320D01*
X134358749Y-91558643D01*
X134353764Y-91628335D01*
X134325265Y-91672680D01*
X134272445Y-91725500D01*
X134272441Y-91725505D01*
X134166006Y-91872002D01*
X134083788Y-92033360D01*
X134083787Y-92033363D01*
X134027829Y-92205589D01*
X133999500Y-92384448D01*
X133999500Y-92565551D01*
X134027829Y-92744410D01*
X134083787Y-92916636D01*
X134083788Y-92916639D01*
X134166006Y-93077997D01*
X134272441Y-93224494D01*
X134272445Y-93224499D01*
X134325265Y-93277320D01*
X134358749Y-93338643D01*
X134353764Y-93408335D01*
X134325265Y-93452680D01*
X134272445Y-93505500D01*
X134272441Y-93505505D01*
X134166006Y-93652002D01*
X134083788Y-93813360D01*
X134083787Y-93813363D01*
X134027829Y-93985589D01*
X133999500Y-94164448D01*
X133999500Y-94345551D01*
X134027829Y-94524410D01*
X134083787Y-94696636D01*
X134083788Y-94696639D01*
X134166006Y-94857997D01*
X134272441Y-95004494D01*
X134272445Y-95004499D01*
X134325265Y-95057320D01*
X134358749Y-95118643D01*
X134353764Y-95188335D01*
X134325265Y-95232680D01*
X134272445Y-95285500D01*
X134272441Y-95285505D01*
X134166006Y-95432002D01*
X134083788Y-95593360D01*
X134083787Y-95593363D01*
X134027829Y-95765589D01*
X133999500Y-95944448D01*
X133999500Y-96125551D01*
X134027829Y-96304410D01*
X134083787Y-96476636D01*
X134083788Y-96476639D01*
X134166006Y-96637997D01*
X134272441Y-96784494D01*
X134272445Y-96784499D01*
X134400500Y-96912554D01*
X134400505Y-96912558D01*
X134498151Y-96983501D01*
X134547006Y-97018996D01*
X134650484Y-97071721D01*
X134708360Y-97101211D01*
X134708363Y-97101212D01*
X134794418Y-97129172D01*
X134880591Y-97157171D01*
X134963429Y-97170291D01*
X135059449Y-97185500D01*
X135059454Y-97185500D01*
X135240551Y-97185500D01*
X135327259Y-97171765D01*
X135419409Y-97157171D01*
X135591639Y-97101211D01*
X135624205Y-97084617D01*
X135692872Y-97071721D01*
X135757613Y-97097996D01*
X135797871Y-97155101D01*
X135804500Y-97195102D01*
X135804500Y-98137672D01*
X135804500Y-98237328D01*
X135842636Y-98329397D01*
X135913103Y-98399864D01*
X136005172Y-98438000D01*
X136005174Y-98438000D01*
X144994826Y-98438000D01*
X144994828Y-98438000D01*
X145086897Y-98399864D01*
X145157364Y-98329397D01*
X145195500Y-98237328D01*
X145195500Y-98085102D01*
X145215185Y-98018063D01*
X145267989Y-97972308D01*
X145337147Y-97962364D01*
X145375793Y-97974616D01*
X145408361Y-97991211D01*
X145408362Y-97991211D01*
X145408363Y-97991212D01*
X145491004Y-98018063D01*
X145580591Y-98047171D01*
X145663429Y-98060291D01*
X145759449Y-98075500D01*
X145759454Y-98075500D01*
X145940551Y-98075500D01*
X146027259Y-98061765D01*
X146119409Y-98047171D01*
X146291639Y-97991211D01*
X146452994Y-97908996D01*
X146599501Y-97802553D01*
X146727553Y-97674501D01*
X146833996Y-97527994D01*
X146916211Y-97366639D01*
X146972171Y-97194409D01*
X146999954Y-97018996D01*
X147000500Y-97015551D01*
X147000500Y-96834448D01*
X146984019Y-96730397D01*
X146972171Y-96655591D01*
X146926982Y-96516510D01*
X146916212Y-96483363D01*
X146916211Y-96483360D01*
X146865323Y-96383489D01*
X146833996Y-96322006D01*
X146773780Y-96239125D01*
X146727558Y-96175505D01*
X146727554Y-96175500D01*
X146674735Y-96122681D01*
X146641250Y-96061358D01*
X146646234Y-95991666D01*
X146674735Y-95947319D01*
X146677606Y-95944448D01*
X146727553Y-95894501D01*
X146833996Y-95747994D01*
X146916211Y-95586639D01*
X146972171Y-95414409D01*
X146986765Y-95322259D01*
X147000500Y-95235551D01*
X147000500Y-95054448D01*
X146979163Y-94919737D01*
X146972171Y-94875591D01*
X146916211Y-94703361D01*
X146916211Y-94703360D01*
X146887740Y-94647484D01*
X146833996Y-94542006D01*
X146731016Y-94400265D01*
X146727558Y-94395505D01*
X146727554Y-94395500D01*
X146674735Y-94342681D01*
X146641250Y-94281358D01*
X146646234Y-94211666D01*
X146674735Y-94167319D01*
X146677606Y-94164448D01*
X146727553Y-94114501D01*
X146833996Y-93967994D01*
X146916211Y-93806639D01*
X146972171Y-93634409D01*
X146988991Y-93528210D01*
X147000500Y-93455551D01*
X147000500Y-93274448D01*
X146984019Y-93170397D01*
X146972171Y-93095591D01*
X146944191Y-93009476D01*
X146916212Y-92923363D01*
X146916211Y-92923360D01*
X146874043Y-92840602D01*
X146833996Y-92762006D01*
X146820396Y-92743287D01*
X146727558Y-92615505D01*
X146727554Y-92615500D01*
X146674735Y-92562681D01*
X146641250Y-92501358D01*
X146646234Y-92431666D01*
X146674735Y-92387319D01*
X146677606Y-92384448D01*
X146727553Y-92334501D01*
X146833996Y-92187994D01*
X146916211Y-92026639D01*
X146972171Y-91854409D01*
X146986765Y-91762259D01*
X147000500Y-91675551D01*
X147000500Y-91494448D01*
X146984019Y-91390397D01*
X146972171Y-91315591D01*
X146916211Y-91143361D01*
X146916211Y-91143360D01*
X146887740Y-91087484D01*
X146833996Y-90982006D01*
X146820396Y-90963287D01*
X146727558Y-90835505D01*
X146727554Y-90835500D01*
X146674735Y-90782681D01*
X146641250Y-90721358D01*
X146646234Y-90651666D01*
X146674735Y-90607319D01*
X146677606Y-90604448D01*
X146727553Y-90554501D01*
X146833996Y-90407994D01*
X146916211Y-90246639D01*
X146972171Y-90074409D01*
X146986765Y-89982259D01*
X147000500Y-89895551D01*
X147000500Y-89714448D01*
X146984019Y-89610397D01*
X146972171Y-89535591D01*
X146916211Y-89363361D01*
X146916211Y-89363360D01*
X146887740Y-89307484D01*
X146833996Y-89202006D01*
X146820396Y-89183287D01*
X146727558Y-89055505D01*
X146727554Y-89055500D01*
X146674735Y-89002681D01*
X146641250Y-88941358D01*
X146646234Y-88871666D01*
X146674735Y-88827319D01*
X146677606Y-88824448D01*
X146727553Y-88774501D01*
X146833996Y-88627994D01*
X146916211Y-88466639D01*
X146972171Y-88294409D01*
X146986765Y-88202259D01*
X147000500Y-88115551D01*
X147000500Y-87934448D01*
X146984019Y-87830397D01*
X146972171Y-87755591D01*
X146916211Y-87583361D01*
X146916211Y-87583360D01*
X146887740Y-87527484D01*
X146833996Y-87422006D01*
X146820396Y-87403287D01*
X146727558Y-87275505D01*
X146727554Y-87275500D01*
X146674735Y-87222681D01*
X146641250Y-87161358D01*
X146646234Y-87091666D01*
X146674735Y-87047319D01*
X146677606Y-87044448D01*
X146727553Y-86994501D01*
X146833996Y-86847994D01*
X146916211Y-86686639D01*
X146972171Y-86514409D01*
X146986765Y-86422259D01*
X147000500Y-86335551D01*
X147000500Y-86154448D01*
X146984019Y-86050397D01*
X146972171Y-85975591D01*
X146916211Y-85803361D01*
X146916211Y-85803360D01*
X146887740Y-85747484D01*
X146833996Y-85642006D01*
X146820396Y-85623287D01*
X146727558Y-85495505D01*
X146727554Y-85495500D01*
X146599499Y-85367445D01*
X146599494Y-85367441D01*
X146452997Y-85261006D01*
X146452996Y-85261005D01*
X146452994Y-85261004D01*
X146401300Y-85234664D01*
X146291639Y-85178788D01*
X146291633Y-85178786D01*
X146199369Y-85148809D01*
X146150005Y-85118559D01*
X145846446Y-84815000D01*
X145896078Y-84815000D01*
X145985095Y-84791148D01*
X146064905Y-84745070D01*
X146130070Y-84679905D01*
X146176148Y-84600095D01*
X146200000Y-84511078D01*
X146200000Y-84464999D01*
X146203553Y-84464999D01*
X146203553Y-84465001D01*
X146822085Y-85083533D01*
X146822085Y-85083532D01*
X146833568Y-85067730D01*
X146915745Y-84906452D01*
X146915748Y-84906444D01*
X146971682Y-84734293D01*
X147000000Y-84555506D01*
X147000000Y-84374493D01*
X146971682Y-84195706D01*
X146915748Y-84023555D01*
X146915747Y-84023552D01*
X146833571Y-83862275D01*
X146833566Y-83862267D01*
X146822085Y-83846466D01*
X146203553Y-84464999D01*
X146200000Y-84464999D01*
X146200000Y-84418922D01*
X146176148Y-84329905D01*
X146130070Y-84250095D01*
X146064905Y-84184930D01*
X145985095Y-84138852D01*
X145896078Y-84115000D01*
X145846446Y-84115000D01*
X146468533Y-83492913D01*
X146452730Y-83481431D01*
X146291447Y-83399252D01*
X146291444Y-83399251D01*
X146119293Y-83343317D01*
X145940506Y-83315000D01*
X145759494Y-83315000D01*
X145580706Y-83343317D01*
X145408555Y-83399251D01*
X145408552Y-83399252D01*
X145375795Y-83415944D01*
X145307126Y-83428840D01*
X145242385Y-83402564D01*
X145202128Y-83345457D01*
X145195500Y-83305459D01*
X145195500Y-82262673D01*
X145195499Y-82262670D01*
X145157364Y-82170603D01*
X145086897Y-82100136D01*
X144994829Y-82062000D01*
X144994828Y-82062000D01*
X136104828Y-82062000D01*
X136005172Y-82062000D01*
X136005170Y-82062000D01*
X135913102Y-82100136D01*
X135842636Y-82170602D01*
X135804500Y-82262670D01*
X135804500Y-82414897D01*
X135784815Y-82481936D01*
X135732011Y-82527691D01*
X135662853Y-82537635D01*
X135624205Y-82525382D01*
X135591639Y-82508789D01*
X135591636Y-82508787D01*
X135419410Y-82452829D01*
X135240551Y-82424500D01*
X135240546Y-82424500D01*
X135059454Y-82424500D01*
X135059449Y-82424500D01*
X134880589Y-82452829D01*
X134708363Y-82508787D01*
X134708360Y-82508788D01*
X134547002Y-82591006D01*
X134400505Y-82697441D01*
X134400500Y-82697445D01*
X134272445Y-82825500D01*
X134272441Y-82825505D01*
X134166006Y-82972002D01*
X134083788Y-83133360D01*
X134083787Y-83133363D01*
X134027829Y-83305589D01*
X133999500Y-83484448D01*
X110750500Y-83484448D01*
X110750500Y-67202135D01*
X138449500Y-67202135D01*
X138449500Y-69297870D01*
X138449501Y-69297876D01*
X138455908Y-69357483D01*
X138506202Y-69492328D01*
X138506206Y-69492335D01*
X138592452Y-69607544D01*
X138592455Y-69607547D01*
X138707664Y-69693793D01*
X138707671Y-69693797D01*
X138842517Y-69744091D01*
X138842516Y-69744091D01*
X138849444Y-69744835D01*
X138902127Y-69750500D01*
X142197872Y-69750499D01*
X142257483Y-69744091D01*
X142392331Y-69693796D01*
X142507546Y-69607546D01*
X142593796Y-69492331D01*
X142644091Y-69357483D01*
X142650500Y-69297873D01*
X142650499Y-67202128D01*
X142644091Y-67142517D01*
X142593796Y-67007669D01*
X142593795Y-67007668D01*
X142593793Y-67007664D01*
X142507547Y-66892455D01*
X142507544Y-66892452D01*
X142392335Y-66806206D01*
X142392328Y-66806202D01*
X142257482Y-66755908D01*
X142257483Y-66755908D01*
X142197883Y-66749501D01*
X142197881Y-66749500D01*
X142197873Y-66749500D01*
X142197864Y-66749500D01*
X138902129Y-66749500D01*
X138902123Y-66749501D01*
X138842516Y-66755908D01*
X138707671Y-66806202D01*
X138707664Y-66806206D01*
X138592455Y-66892452D01*
X138592452Y-66892455D01*
X138506206Y-67007664D01*
X138506202Y-67007671D01*
X138455908Y-67142517D01*
X138449501Y-67202116D01*
X138449501Y-67202123D01*
X138449500Y-67202135D01*
X110750500Y-67202135D01*
X110750500Y-65031902D01*
X132049500Y-65031902D01*
X132049500Y-65268097D01*
X132086446Y-65501368D01*
X132159433Y-65725996D01*
X132266657Y-65936433D01*
X132405483Y-66127510D01*
X132572490Y-66294517D01*
X132763567Y-66433343D01*
X132862991Y-66484002D01*
X132974003Y-66540566D01*
X132974005Y-66540566D01*
X132974008Y-66540568D01*
X133094412Y-66579689D01*
X133198631Y-66613553D01*
X133431903Y-66650500D01*
X133431908Y-66650500D01*
X133668097Y-66650500D01*
X133901368Y-66613553D01*
X134125992Y-66540568D01*
X134336433Y-66433343D01*
X134527510Y-66294517D01*
X134694517Y-66127510D01*
X134833343Y-65936433D01*
X134940568Y-65725992D01*
X135013553Y-65501368D01*
X135050500Y-65268097D01*
X135050500Y-65031902D01*
X135013553Y-64798631D01*
X134940566Y-64574003D01*
X134871005Y-64437483D01*
X134833343Y-64363567D01*
X134694517Y-64172490D01*
X134527510Y-64005483D01*
X134336433Y-63866657D01*
X134125996Y-63759433D01*
X133901368Y-63686446D01*
X133668097Y-63649500D01*
X133668092Y-63649500D01*
X133431908Y-63649500D01*
X133431903Y-63649500D01*
X133198631Y-63686446D01*
X132974003Y-63759433D01*
X132763566Y-63866657D01*
X132707119Y-63907669D01*
X132572490Y-64005483D01*
X132572488Y-64005485D01*
X132572487Y-64005485D01*
X132405485Y-64172487D01*
X132405485Y-64172488D01*
X132405483Y-64172490D01*
X132345862Y-64254550D01*
X132266657Y-64363566D01*
X132159433Y-64574003D01*
X132086446Y-64798631D01*
X132049500Y-65031902D01*
X110750500Y-65031902D01*
X110750500Y-62282135D01*
X121999500Y-62282135D01*
X121999500Y-64377870D01*
X121999501Y-64377876D01*
X122005908Y-64437483D01*
X122056202Y-64572328D01*
X122056206Y-64572335D01*
X122142452Y-64687544D01*
X122142455Y-64687547D01*
X122257664Y-64773793D01*
X122257671Y-64773797D01*
X122392517Y-64824091D01*
X122392516Y-64824091D01*
X122399444Y-64824835D01*
X122452127Y-64830500D01*
X124547872Y-64830499D01*
X124607483Y-64824091D01*
X124742331Y-64773796D01*
X124857546Y-64687546D01*
X124943796Y-64572331D01*
X124994091Y-64437483D01*
X125000500Y-64377873D01*
X125000499Y-62282128D01*
X124994091Y-62222517D01*
X124943796Y-62087669D01*
X124943795Y-62087668D01*
X124943793Y-62087664D01*
X124857547Y-61972455D01*
X124857544Y-61972452D01*
X124742335Y-61886206D01*
X124742328Y-61886202D01*
X124607482Y-61835908D01*
X124607483Y-61835908D01*
X124547883Y-61829501D01*
X124547881Y-61829500D01*
X124547873Y-61829500D01*
X124547864Y-61829500D01*
X122452129Y-61829500D01*
X122452123Y-61829501D01*
X122392516Y-61835908D01*
X122257671Y-61886202D01*
X122257664Y-61886206D01*
X122142455Y-61972452D01*
X122142452Y-61972455D01*
X122056206Y-62087664D01*
X122056202Y-62087671D01*
X122005908Y-62222517D01*
X121999501Y-62282116D01*
X121999501Y-62282123D01*
X121999500Y-62282135D01*
X110750500Y-62282135D01*
X110750500Y-60031947D01*
X132050000Y-60031947D01*
X132050000Y-60268052D01*
X132086934Y-60501247D01*
X132159897Y-60725802D01*
X132267087Y-60936174D01*
X132327338Y-61019104D01*
X132327340Y-61019105D01*
X133067037Y-60279408D01*
X133084075Y-60342993D01*
X133149901Y-60457007D01*
X133242993Y-60550099D01*
X133357007Y-60615925D01*
X133420590Y-60632962D01*
X132680893Y-61372658D01*
X132763828Y-61432914D01*
X132974197Y-61540102D01*
X133198752Y-61613065D01*
X133198751Y-61613065D01*
X133431948Y-61650000D01*
X133668052Y-61650000D01*
X133901247Y-61613065D01*
X134125802Y-61540102D01*
X134336163Y-61432918D01*
X134336169Y-61432914D01*
X134419104Y-61372658D01*
X134419105Y-61372658D01*
X133679408Y-60632962D01*
X133742993Y-60615925D01*
X133857007Y-60550099D01*
X133950099Y-60457007D01*
X134015925Y-60342993D01*
X134032962Y-60279409D01*
X134772658Y-61019105D01*
X134772658Y-61019104D01*
X134832914Y-60936169D01*
X134832918Y-60936163D01*
X134940102Y-60725802D01*
X135013065Y-60501247D01*
X135050000Y-60268052D01*
X135050000Y-60031947D01*
X135049993Y-60031902D01*
X146549500Y-60031902D01*
X146549500Y-60268097D01*
X146586446Y-60501368D01*
X146659433Y-60725996D01*
X146766519Y-60936163D01*
X146766657Y-60936433D01*
X146905483Y-61127510D01*
X147072490Y-61294517D01*
X147128739Y-61335384D01*
X147171403Y-61390713D01*
X147176095Y-61422542D01*
X147920591Y-62167037D01*
X147857007Y-62184075D01*
X147742993Y-62249901D01*
X147649901Y-62342993D01*
X147584075Y-62457007D01*
X147567037Y-62520591D01*
X146827340Y-61780894D01*
X146767084Y-61863830D01*
X146659897Y-62074197D01*
X146586934Y-62298752D01*
X146550000Y-62531947D01*
X146550000Y-62768052D01*
X146586934Y-63001247D01*
X146659897Y-63225802D01*
X146767087Y-63436174D01*
X146836605Y-63531858D01*
X146860085Y-63597664D01*
X146844260Y-63665718D01*
X146810599Y-63704009D01*
X146692452Y-63792455D01*
X146606206Y-63907664D01*
X146606202Y-63907671D01*
X146555908Y-64042517D01*
X146549501Y-64102116D01*
X146549501Y-64102123D01*
X146549500Y-64102135D01*
X146549500Y-66197870D01*
X146549501Y-66197876D01*
X146555908Y-66257483D01*
X146606202Y-66392328D01*
X146606206Y-66392335D01*
X146692452Y-66507544D01*
X146692455Y-66507547D01*
X146807664Y-66593793D01*
X146807671Y-66593797D01*
X146942517Y-66644091D01*
X146942516Y-66644091D01*
X146949444Y-66644835D01*
X147002127Y-66650500D01*
X149097872Y-66650499D01*
X149157483Y-66644091D01*
X149292331Y-66593796D01*
X149407546Y-66507546D01*
X149493796Y-66392331D01*
X149544091Y-66257483D01*
X149550500Y-66197873D01*
X149550499Y-64102128D01*
X149544091Y-64042517D01*
X149530278Y-64005483D01*
X149493797Y-63907671D01*
X149493793Y-63907664D01*
X149407547Y-63792455D01*
X149289400Y-63704009D01*
X149247530Y-63648075D01*
X149242546Y-63578383D01*
X149263394Y-63531857D01*
X149332914Y-63436171D01*
X149440102Y-63225802D01*
X149513065Y-63001247D01*
X149550000Y-62768052D01*
X149550000Y-62531947D01*
X149513066Y-62298754D01*
X149513065Y-62298752D01*
X149507666Y-62282135D01*
X156999500Y-62282135D01*
X156999500Y-64377870D01*
X156999501Y-64377876D01*
X157005908Y-64437483D01*
X157056202Y-64572328D01*
X157056206Y-64572335D01*
X157142452Y-64687544D01*
X157142455Y-64687547D01*
X157257664Y-64773793D01*
X157257671Y-64773797D01*
X157392517Y-64824091D01*
X157392516Y-64824091D01*
X157399444Y-64824835D01*
X157452127Y-64830500D01*
X159547872Y-64830499D01*
X159607483Y-64824091D01*
X159742331Y-64773796D01*
X159857546Y-64687546D01*
X159943796Y-64572331D01*
X159994091Y-64437483D01*
X160000500Y-64377873D01*
X160000499Y-62282128D01*
X159994091Y-62222517D01*
X159943796Y-62087669D01*
X159943795Y-62087668D01*
X159943793Y-62087664D01*
X159857547Y-61972455D01*
X159857544Y-61972452D01*
X159742335Y-61886206D01*
X159742328Y-61886202D01*
X159607482Y-61835908D01*
X159607483Y-61835908D01*
X159547883Y-61829501D01*
X159547881Y-61829500D01*
X159547873Y-61829500D01*
X159547864Y-61829500D01*
X157452129Y-61829500D01*
X157452123Y-61829501D01*
X157392516Y-61835908D01*
X157257671Y-61886202D01*
X157257664Y-61886206D01*
X157142455Y-61972452D01*
X157142452Y-61972455D01*
X157056206Y-62087664D01*
X157056202Y-62087671D01*
X157005908Y-62222517D01*
X156999501Y-62282116D01*
X156999501Y-62282123D01*
X156999500Y-62282135D01*
X149507666Y-62282135D01*
X149440102Y-62074197D01*
X149332914Y-61863828D01*
X149272658Y-61780894D01*
X149272658Y-61780893D01*
X148532962Y-62520589D01*
X148515925Y-62457007D01*
X148450099Y-62342993D01*
X148357007Y-62249901D01*
X148242993Y-62184075D01*
X148179409Y-62167037D01*
X148925716Y-61420729D01*
X148934891Y-61377054D01*
X148971257Y-61335386D01*
X149027510Y-61294517D01*
X149194517Y-61127510D01*
X149333343Y-60936433D01*
X149440568Y-60725992D01*
X149513553Y-60501368D01*
X149538637Y-60342993D01*
X149550500Y-60268097D01*
X149550500Y-60031902D01*
X149513553Y-59798631D01*
X149440566Y-59574003D01*
X149393532Y-59481694D01*
X149333477Y-59363830D01*
X149333343Y-59363567D01*
X149194517Y-59172490D01*
X149027510Y-59005483D01*
X148836433Y-58866657D01*
X148756251Y-58825802D01*
X148625996Y-58759433D01*
X148401368Y-58686446D01*
X148168097Y-58649500D01*
X148168092Y-58649500D01*
X147931908Y-58649500D01*
X147931903Y-58649500D01*
X147698631Y-58686446D01*
X147474003Y-58759433D01*
X147263566Y-58866657D01*
X147197523Y-58914641D01*
X147072490Y-59005483D01*
X147072488Y-59005485D01*
X147072487Y-59005485D01*
X146905485Y-59172487D01*
X146905485Y-59172488D01*
X146905483Y-59172490D01*
X146845862Y-59254550D01*
X146766657Y-59363566D01*
X146659433Y-59574003D01*
X146586446Y-59798631D01*
X146549500Y-60031902D01*
X135049993Y-60031902D01*
X135013065Y-59798752D01*
X134940102Y-59574197D01*
X134832914Y-59363828D01*
X134772658Y-59280894D01*
X134772658Y-59280893D01*
X134032962Y-60020590D01*
X134015925Y-59957007D01*
X133950099Y-59842993D01*
X133857007Y-59749901D01*
X133742993Y-59684075D01*
X133679409Y-59667037D01*
X134419105Y-58927340D01*
X134419104Y-58927338D01*
X134336174Y-58867087D01*
X134125802Y-58759897D01*
X133901247Y-58686934D01*
X133901248Y-58686934D01*
X133668052Y-58650000D01*
X133431948Y-58650000D01*
X133198752Y-58686934D01*
X132974197Y-58759897D01*
X132763830Y-58867084D01*
X132680894Y-58927340D01*
X133420591Y-59667037D01*
X133357007Y-59684075D01*
X133242993Y-59749901D01*
X133149901Y-59842993D01*
X133084075Y-59957007D01*
X133067037Y-60020591D01*
X132327340Y-59280894D01*
X132267084Y-59363830D01*
X132159897Y-59574197D01*
X132086934Y-59798752D01*
X132050000Y-60031947D01*
X110750500Y-60031947D01*
X110750500Y-58131947D01*
X122000000Y-58131947D01*
X122000000Y-58368052D01*
X122036934Y-58601247D01*
X122109897Y-58825802D01*
X122217087Y-59036174D01*
X122277338Y-59119104D01*
X122277340Y-59119105D01*
X122822421Y-58574024D01*
X122835359Y-58605258D01*
X122917437Y-58728097D01*
X123021903Y-58832563D01*
X123144742Y-58914641D01*
X123175974Y-58927578D01*
X122630893Y-59472658D01*
X122713828Y-59532914D01*
X122924197Y-59640102D01*
X123148752Y-59713065D01*
X123148751Y-59713065D01*
X123381948Y-59750000D01*
X123618052Y-59750000D01*
X123851247Y-59713065D01*
X124075802Y-59640102D01*
X124286163Y-59532918D01*
X124286169Y-59532914D01*
X124369104Y-59472658D01*
X124369105Y-59472658D01*
X123824024Y-58927578D01*
X123855258Y-58914641D01*
X123978097Y-58832563D01*
X124082563Y-58728097D01*
X124164641Y-58605258D01*
X124177578Y-58574025D01*
X124722658Y-59119105D01*
X124722658Y-59119104D01*
X124782914Y-59036169D01*
X124782918Y-59036163D01*
X124842971Y-58918304D01*
X124890102Y-58825802D01*
X124963065Y-58601247D01*
X125000000Y-58368052D01*
X125000000Y-58131947D01*
X124963065Y-57898752D01*
X124890102Y-57674197D01*
X124782914Y-57463828D01*
X124722658Y-57380894D01*
X124722658Y-57380893D01*
X124177577Y-57925974D01*
X124164641Y-57894742D01*
X124082563Y-57771903D01*
X123978097Y-57667437D01*
X123855258Y-57585359D01*
X123824024Y-57572421D01*
X124369105Y-57027340D01*
X124369104Y-57027338D01*
X124286174Y-56967087D01*
X124075802Y-56859897D01*
X123851247Y-56786934D01*
X123851248Y-56786934D01*
X123618052Y-56750000D01*
X123381948Y-56750000D01*
X123148752Y-56786934D01*
X122924197Y-56859897D01*
X122713830Y-56967084D01*
X122630894Y-57027340D01*
X123175975Y-57572421D01*
X123144742Y-57585359D01*
X123021903Y-57667437D01*
X122917437Y-57771903D01*
X122835359Y-57894742D01*
X122822421Y-57925975D01*
X122277340Y-57380894D01*
X122217084Y-57463830D01*
X122109897Y-57674197D01*
X122036934Y-57898752D01*
X122000000Y-58131947D01*
X110750500Y-58131947D01*
X110750500Y-56002135D01*
X138449500Y-56002135D01*
X138449500Y-58097870D01*
X138449501Y-58097876D01*
X138455908Y-58157483D01*
X138506202Y-58292328D01*
X138506206Y-58292335D01*
X138592452Y-58407544D01*
X138592455Y-58407547D01*
X138707664Y-58493793D01*
X138707671Y-58493797D01*
X138842517Y-58544091D01*
X138842516Y-58544091D01*
X138849444Y-58544835D01*
X138902127Y-58550500D01*
X142197872Y-58550499D01*
X142257483Y-58544091D01*
X142392331Y-58493796D01*
X142507546Y-58407546D01*
X142593796Y-58292331D01*
X142644091Y-58157483D01*
X142646837Y-58131947D01*
X157000000Y-58131947D01*
X157000000Y-58368052D01*
X157036934Y-58601247D01*
X157109897Y-58825802D01*
X157217087Y-59036174D01*
X157277338Y-59119104D01*
X157277340Y-59119105D01*
X157822421Y-58574024D01*
X157835359Y-58605258D01*
X157917437Y-58728097D01*
X158021903Y-58832563D01*
X158144742Y-58914641D01*
X158175974Y-58927578D01*
X157630893Y-59472658D01*
X157713828Y-59532914D01*
X157924197Y-59640102D01*
X158148752Y-59713065D01*
X158148751Y-59713065D01*
X158381948Y-59750000D01*
X158618052Y-59750000D01*
X158851247Y-59713065D01*
X159075802Y-59640102D01*
X159286163Y-59532918D01*
X159286169Y-59532914D01*
X159369104Y-59472658D01*
X159369105Y-59472658D01*
X158824024Y-58927578D01*
X158855258Y-58914641D01*
X158978097Y-58832563D01*
X159082563Y-58728097D01*
X159164641Y-58605258D01*
X159177578Y-58574025D01*
X159722658Y-59119105D01*
X159722658Y-59119104D01*
X159782914Y-59036169D01*
X159782918Y-59036163D01*
X159890102Y-58825802D01*
X159963065Y-58601247D01*
X160000000Y-58368052D01*
X160000000Y-58131947D01*
X159963065Y-57898752D01*
X159890102Y-57674197D01*
X159782914Y-57463828D01*
X159722658Y-57380894D01*
X159722658Y-57380893D01*
X159177577Y-57925974D01*
X159164641Y-57894742D01*
X159082563Y-57771903D01*
X158978097Y-57667437D01*
X158855258Y-57585359D01*
X158824024Y-57572421D01*
X159369105Y-57027340D01*
X159369104Y-57027338D01*
X159286174Y-56967087D01*
X159075802Y-56859897D01*
X158851247Y-56786934D01*
X158851248Y-56786934D01*
X158618052Y-56750000D01*
X158381948Y-56750000D01*
X158148752Y-56786934D01*
X157924197Y-56859897D01*
X157713830Y-56967084D01*
X157630894Y-57027340D01*
X158175975Y-57572421D01*
X158144742Y-57585359D01*
X158021903Y-57667437D01*
X157917437Y-57771903D01*
X157835359Y-57894742D01*
X157822421Y-57925975D01*
X157277340Y-57380894D01*
X157217084Y-57463830D01*
X157109897Y-57674197D01*
X157036934Y-57898752D01*
X157000000Y-58131947D01*
X142646837Y-58131947D01*
X142650500Y-58097873D01*
X142650499Y-57027340D01*
X142650499Y-56002129D01*
X142650498Y-56002123D01*
X142650497Y-56002116D01*
X142644091Y-55942517D01*
X142593796Y-55807669D01*
X142593795Y-55807668D01*
X142593793Y-55807664D01*
X142507547Y-55692455D01*
X142507544Y-55692452D01*
X142392335Y-55606206D01*
X142392328Y-55606202D01*
X142257482Y-55555908D01*
X142257483Y-55555908D01*
X142197883Y-55549501D01*
X142197881Y-55549500D01*
X142197873Y-55549500D01*
X142197864Y-55549500D01*
X138902129Y-55549500D01*
X138902123Y-55549501D01*
X138842516Y-55555908D01*
X138707671Y-55606202D01*
X138707664Y-55606206D01*
X138592455Y-55692452D01*
X138592452Y-55692455D01*
X138506206Y-55807664D01*
X138506202Y-55807671D01*
X138455908Y-55942517D01*
X138449501Y-56002116D01*
X138449501Y-56002123D01*
X138449500Y-56002135D01*
X110750500Y-56002135D01*
X110750500Y-53051902D01*
X121999500Y-53051902D01*
X121999500Y-53288097D01*
X122036446Y-53521368D01*
X122109433Y-53745996D01*
X122216657Y-53956433D01*
X122355483Y-54147510D01*
X122522490Y-54314517D01*
X122713567Y-54453343D01*
X122812991Y-54504002D01*
X122924003Y-54560566D01*
X122924005Y-54560566D01*
X122924008Y-54560568D01*
X123044412Y-54599689D01*
X123148631Y-54633553D01*
X123381903Y-54670500D01*
X123381908Y-54670500D01*
X123618097Y-54670500D01*
X123851368Y-54633553D01*
X124075992Y-54560568D01*
X124286433Y-54453343D01*
X124477510Y-54314517D01*
X124644517Y-54147510D01*
X124783343Y-53956433D01*
X124890568Y-53745992D01*
X124963553Y-53521368D01*
X125000500Y-53288097D01*
X125000500Y-53051902D01*
X156999500Y-53051902D01*
X156999500Y-53288097D01*
X157036446Y-53521368D01*
X157109433Y-53745996D01*
X157216657Y-53956433D01*
X157355483Y-54147510D01*
X157522490Y-54314517D01*
X157713567Y-54453343D01*
X157812991Y-54504002D01*
X157924003Y-54560566D01*
X157924005Y-54560566D01*
X157924008Y-54560568D01*
X158044412Y-54599689D01*
X158148631Y-54633553D01*
X158381903Y-54670500D01*
X158381908Y-54670500D01*
X158618097Y-54670500D01*
X158851368Y-54633553D01*
X159075992Y-54560568D01*
X159286433Y-54453343D01*
X159477510Y-54314517D01*
X159644517Y-54147510D01*
X159783343Y-53956433D01*
X159890568Y-53745992D01*
X159963553Y-53521368D01*
X160000500Y-53288097D01*
X160000500Y-53051902D01*
X159963553Y-52818631D01*
X159890566Y-52594003D01*
X159783342Y-52383566D01*
X159644517Y-52192490D01*
X159477510Y-52025483D01*
X159286433Y-51886657D01*
X159075996Y-51779433D01*
X158851368Y-51706446D01*
X158618097Y-51669500D01*
X158618092Y-51669500D01*
X158381908Y-51669500D01*
X158381903Y-51669500D01*
X158148631Y-51706446D01*
X157924003Y-51779433D01*
X157713566Y-51886657D01*
X157604550Y-51965862D01*
X157522490Y-52025483D01*
X157522488Y-52025485D01*
X157522487Y-52025485D01*
X157355485Y-52192487D01*
X157355485Y-52192488D01*
X157355483Y-52192490D01*
X157295862Y-52274550D01*
X157216657Y-52383566D01*
X157109433Y-52594003D01*
X157036446Y-52818631D01*
X156999500Y-53051902D01*
X125000500Y-53051902D01*
X124963553Y-52818631D01*
X124890566Y-52594003D01*
X124783342Y-52383566D01*
X124644517Y-52192490D01*
X124477510Y-52025483D01*
X124286433Y-51886657D01*
X124075996Y-51779433D01*
X123851368Y-51706446D01*
X123618097Y-51669500D01*
X123618092Y-51669500D01*
X123381908Y-51669500D01*
X123381903Y-51669500D01*
X123148631Y-51706446D01*
X122924003Y-51779433D01*
X122713566Y-51886657D01*
X122604550Y-51965862D01*
X122522490Y-52025483D01*
X122522488Y-52025485D01*
X122522487Y-52025485D01*
X122355485Y-52192487D01*
X122355485Y-52192488D01*
X122355483Y-52192490D01*
X122295862Y-52274550D01*
X122216657Y-52383566D01*
X122109433Y-52594003D01*
X122036446Y-52818631D01*
X121999500Y-53051902D01*
X110750500Y-53051902D01*
X110750500Y-48143713D01*
X117149500Y-48143713D01*
X117149500Y-48356286D01*
X117182753Y-48566239D01*
X117248444Y-48768414D01*
X117344951Y-48957820D01*
X117469890Y-49129786D01*
X117620213Y-49280109D01*
X117792179Y-49405048D01*
X117792181Y-49405049D01*
X117792184Y-49405051D01*
X117981588Y-49501557D01*
X118183757Y-49567246D01*
X118393713Y-49600500D01*
X118393714Y-49600500D01*
X118606286Y-49600500D01*
X118606287Y-49600500D01*
X118816243Y-49567246D01*
X119018412Y-49501557D01*
X119207816Y-49405051D01*
X119229789Y-49389086D01*
X119379786Y-49280109D01*
X119379788Y-49280106D01*
X119379792Y-49280104D01*
X119530104Y-49129792D01*
X119530106Y-49129788D01*
X119530109Y-49129786D01*
X119655048Y-48957820D01*
X119655047Y-48957820D01*
X119655051Y-48957816D01*
X119751557Y-48768412D01*
X119817246Y-48566243D01*
X119850500Y-48356287D01*
X119850500Y-48143713D01*
X161149500Y-48143713D01*
X161149500Y-48356286D01*
X161182753Y-48566239D01*
X161248444Y-48768414D01*
X161344951Y-48957820D01*
X161469890Y-49129786D01*
X161620213Y-49280109D01*
X161792179Y-49405048D01*
X161792181Y-49405049D01*
X161792184Y-49405051D01*
X161981588Y-49501557D01*
X162183757Y-49567246D01*
X162393713Y-49600500D01*
X162393714Y-49600500D01*
X162606286Y-49600500D01*
X162606287Y-49600500D01*
X162816243Y-49567246D01*
X163018412Y-49501557D01*
X163207816Y-49405051D01*
X163229789Y-49389086D01*
X163379786Y-49280109D01*
X163379788Y-49280106D01*
X163379792Y-49280104D01*
X163530104Y-49129792D01*
X163530106Y-49129788D01*
X163530109Y-49129786D01*
X163655048Y-48957820D01*
X163655047Y-48957820D01*
X163655051Y-48957816D01*
X163751557Y-48768412D01*
X163817246Y-48566243D01*
X163850500Y-48356287D01*
X163850500Y-48143713D01*
X163817246Y-47933757D01*
X163751557Y-47731588D01*
X163655051Y-47542184D01*
X163655049Y-47542181D01*
X163655048Y-47542179D01*
X163530109Y-47370213D01*
X163379786Y-47219890D01*
X163207820Y-47094951D01*
X163018414Y-46998444D01*
X163018413Y-46998443D01*
X163018412Y-46998443D01*
X162816243Y-46932754D01*
X162816241Y-46932753D01*
X162816240Y-46932753D01*
X162654957Y-46907208D01*
X162606287Y-46899500D01*
X162393713Y-46899500D01*
X162345042Y-46907208D01*
X162183760Y-46932753D01*
X161981585Y-46998444D01*
X161792179Y-47094951D01*
X161620213Y-47219890D01*
X161469890Y-47370213D01*
X161344951Y-47542179D01*
X161248444Y-47731585D01*
X161182753Y-47933760D01*
X161149500Y-48143713D01*
X119850500Y-48143713D01*
X119817246Y-47933757D01*
X119751557Y-47731588D01*
X119655051Y-47542184D01*
X119655049Y-47542181D01*
X119655048Y-47542179D01*
X119530109Y-47370213D01*
X119379786Y-47219890D01*
X119207820Y-47094951D01*
X119018414Y-46998444D01*
X119018413Y-46998443D01*
X119018412Y-46998443D01*
X118816243Y-46932754D01*
X118816241Y-46932753D01*
X118816240Y-46932753D01*
X118654957Y-46907208D01*
X118606287Y-46899500D01*
X118393713Y-46899500D01*
X118345042Y-46907208D01*
X118183760Y-46932753D01*
X117981585Y-46998444D01*
X117792179Y-47094951D01*
X117620213Y-47219890D01*
X117469890Y-47370213D01*
X117344951Y-47542179D01*
X117248444Y-47731585D01*
X117182753Y-47933760D01*
X117149500Y-48143713D01*
X110750500Y-48143713D01*
X110750500Y-40624500D01*
X110770185Y-40557461D01*
X110822989Y-40511706D01*
X110874500Y-40500500D01*
X170125500Y-40500500D01*
X170192539Y-40520185D01*
G37*
%TD.AperFunction*%
%TD*%
M02*
