M48
; DRILL file KiCad 10.0.5 date 2026-08-27T11:40:34
; FORMAT={-:-/ absolute / metric / decimal}
; #@! TF.CreationDate,2026-08-27T11:40:34+01:00
; #@! TF.GenerationSoftware,Kicad,Pcbnew,10.0.5
; #@! TF.FileFunction,Plated,1,2,PTH
FMAT,2
METRIC
; #@! TA.AperFunction,Plated,PTH,ViaDrill
T1C0.300
; #@! TA.AperFunction,Plated,PTH,ComponentDrill
T2C0.700
; #@! TA.AperFunction,Plated,PTH,ComponentDrill
T3C1.000
; #@! TA.AperFunction,Plated,PTH,ComponentDrill
T4C1.016
; #@! TA.AperFunction,Plated,PTH,ComponentDrill
T5C1.500
%
G90
G05
T1
X126.5Y-101.25
X127.5Y-98.25
X130.5Y-83.25
X130.5Y-101.25
X130.5Y-104.25
X137.9Y-102.487
X138.1Y-104.188
X141.5Y-126.25
X142.6Y-101.55
X143.5Y-131.25
X145.5Y-130.25
X145.5Y-133.25
X148.2Y-98.35
X148.6Y-85.35
X150.3Y-90.75
T2
X135.15Y-83.575
X135.15Y-85.355
X135.15Y-87.135
X135.15Y-88.915
X135.15Y-90.695
X135.15Y-92.475
X135.15Y-94.255
X135.15Y-96.035
X145.85Y-84.465
X145.85Y-86.245
X145.85Y-88.025
X145.85Y-89.805
X145.85Y-91.585
X145.85Y-93.365
X145.85Y-95.145
X145.85Y-96.925
T3
X133.55Y-60.15
X133.55Y-65.15
X148.05Y-60.15
X148.05Y-62.65
X148.05Y-65.15
T4
X133.045Y-112.113
X133.045Y-114.653
X133.045Y-117.193
X133.045Y-119.733
X133.045Y-122.273
X133.045Y-124.813
X133.045Y-127.353
X133.045Y-129.893
X133.045Y-132.433
X133.045Y-134.973
X133.045Y-137.513
X133.045Y-140.053
X148.285Y-112.113
X148.285Y-114.653
X148.285Y-117.193
X148.285Y-119.733
X148.285Y-122.273
X148.285Y-124.813
X148.285Y-127.353
X148.285Y-129.893
X148.285Y-132.433
X148.285Y-134.973
X148.285Y-137.513
X148.285Y-140.053
T5
X123.5Y-53.17
X123.5Y-58.25
X123.5Y-63.33
X158.5Y-53.17
X158.5Y-58.25
X158.5Y-63.33
T5
G00X141.2Y-57.05
M15
G01X139.9Y-57.05
M16
G05
G00X141.2Y-68.25
M15
G01X139.9Y-68.25
M16
G05
M30
